<svg width="1282" height="722" xmlns="http://www.w3.org/2000/svg" xmlns:xlink="http://www.w3.org/1999/xlink" overflow="hidden"><defs><clipPath id="clip0"><rect x="-1" y="-1" width="1282" height="722"/></clipPath></defs><g clip-path="url(#clip0)" transform="translate(1 1)"><rect x="0" y="0" width="1280" height="720" fill="#97EEFF"/><path d="M165.903 195.4 433.398 195.4 433.398 651 0 651 0 375.303 165.903 375.303ZM779.495 119.897 1023.38 119.897 1023.38 408.86 1280 408.86 1280 651 433.398 651 433.398 467.585 589.981 467.585 589.981 323.104 589.981 323.104 685.67 230.821 779.495 321.306ZM299.65 91 433.398 195.4 165.903 195.4Z" fill="#33DDFF" fill-rule="evenodd"/><path d="M955.405 204 1160.39 204 1160.39 523.308 1280 523.308 1280 651 0 651 0 467.289 0.000104987 467.289 0.000104987 415.005 0.000104987 311.369 0.000104987 235.47 92.9783 310.436 93.204 310.436 93.204 310.618 94.1363 311.369 93.204 311.369 93.204 467.289 274.952 467.289 274.952 313.237 496.777 313.237 496.777 414.925 599.767 338.445 702.864 415.005 704.621 415.005 704.621 365.521 955.405 365.521Z" fill="#33C0FF" fill-rule="evenodd"/><rect x="0" y="651" width="1280" height="69" fill="#009FE6"/></g></svg>