<svg width="1282" height="722" xmlns="http://www.w3.org/2000/svg" xmlns:xlink="http://www.w3.org/1999/xlink" overflow="hidden"><defs><clipPath id="clip0"><rect x="-1" y="-1" width="1282" height="722"/></clipPath></defs><g clip-path="url(#clip0)" transform="translate(1 1)"><path d="M1161.04 718.613C1163.7 718.349 1166.25 718.426 1168.66 718.845L1172.14 720 1154.88 720ZM650.633 713.861 650.522 720 639.999 720ZM523.544 709.859 529.398 720 505.979 720ZM977.356 707.87 984.097 719.546 983.311 720 956.347 720ZM155.095 704.356 176.7 720 141.011 720 140.269 712.916ZM429.49 693.736 436.445 705.782 411.819 720 383.999 720ZM691.859 690.059 733.208 720 707.03 720 692.86 709.126 694.292 720 679.271 720 677.033 698.619ZM966.254 679.439 973.209 691.485 939.108 711.173 944.205 720 924.313 720 917.234 707.74ZM1233.77 672.79 1240.72 684.836 1206.62 704.524 1214.76 718.609 1244.87 701.222 1251.61 712.898 1239.31 720 1195.67 720 1184.75 701.091ZM491.844 657.736 498.799 669.782 464.698 689.47 472.83 703.555 502.947 686.168 509.687 697.844 479.571 715.231 482.325 720 462.433 720 442.824 686.037ZM240.102 655.278 247.164 667.509 226.407 679.493 249.793 720 229.778 720 211.395 688.16 190.638 700.144 183.576 687.913ZM1280 646.099 1280 662.161 1268.98 668.524 1277.11 682.609 1280 680.941 1280 720 1278.81 720 1247.1 665.091ZM294.331 644.169C290.86 643.579 286.87 644.585 282.36 647.189L270.128 654.251 283.182 676.861 295.414 669.799C299.924 667.196 302.781 664.228 303.988 660.895 305.194 657.563 304.763 654.106 302.694 650.523 300.59 646.878 297.802 644.76 294.331 644.169ZM1028.61 643.439 1035.56 655.485 1001.46 675.173 1009.59 689.258 1039.71 671.87 1046.45 683.546 1016.34 700.934 1025 715.945 1060.31 695.562 1067.26 707.608 1045.8 720 1007.45 720 979.588 671.74ZM776.866 640.98 783.927 653.212 763.171 665.196 793.559 717.83 789.799 720 774.796 720 748.159 673.863 727.402 685.847 720.34 673.615ZM831.095 629.872C827.624 629.281 823.633 630.288 819.124 632.892L806.892 639.953 819.946 662.564 832.178 655.502C836.687 652.898 839.545 649.93 840.752 646.598 841.958 643.266 841.526 639.808 839.458 636.225 837.353 632.58 834.566 630.463 831.095 629.872ZM292.756 628.708C298.093 628.18 302.921 629.017 307.24 631.218 311.559 633.42 315.109 636.93 317.891 641.749 320.673 646.567 321.913 651.39 321.612 656.218 321.31 661.046 319.563 665.617 316.371 669.931L342.957 682.382 326.833 691.691 303.891 680.843 303.149 681.271 290.084 688.815 300.516 706.885 285.504 715.552 248.054 650.686 276.132 634.476C281.877 631.159 287.418 629.236 292.756 628.708ZM49.8691 617.307 48.8462 673.743 62.1142 696.724 47.1025 705.391 33.7276 682.225 0.000213623 663.574 0.000183105 646.099 0.478882 645.823 34.4455 664.637 35.1354 625.814ZM829.52 614.411C834.857 613.883 839.685 614.719 844.004 616.921 848.322 619.123 851.873 622.632 854.655 627.451 857.437 632.27 858.677 637.093 858.376 641.921 858.074 646.749 856.327 651.32 853.134 655.634L879.72 668.084 863.597 677.393 840.655 666.546 839.913 666.974 826.847 674.517 837.28 692.587 822.268 701.254 784.818 636.389 812.896 620.178C818.641 616.861 824.182 614.939 829.52 614.411ZM92.0959 612.572 96.1482 643.345 116.72 631.468ZM586.633 603.009 585.61 659.446 598.878 682.427 583.866 691.094 570.491 667.928 521.304 640.727 537.243 631.525 571.209 650.339 571.899 611.516ZM628.86 598.275 632.912 629.047 653.483 617.17ZM91.0953 593.505 157.549 641.625 141.796 650.72 128.026 640.137 97.9102 657.525 100.19 674.741 84.8076 683.622 76.269 602.065ZM1122.53 589.212 1121.51 645.648 1134.78 668.629 1119.76 677.296 1106.39 654.13 1057.2 626.93 1073.14 617.727 1107.11 636.542 1107.8 597.719ZM1164.76 584.477 1168.81 615.25 1189.38 603.373ZM365.49 582.885 372.445 594.931 338.344 614.619 346.477 628.704 376.592 611.317 383.333 622.992 353.218 640.38 361.884 655.392 397.19 635.008 404.145 647.055 353.921 676.052 316.471 611.186ZM627.859 579.208 694.313 627.327 678.56 636.422 664.79 625.84 634.674 643.227 636.954 660.444 621.571 669.325 613.033 587.768ZM902.254 568.587 909.209 580.634 875.108 600.322 883.24 614.407 913.356 597.019 920.097 608.695 889.981 626.083 898.648 641.094 933.953 620.711 940.908 632.757 890.684 661.754 853.234 596.889ZM1163.76 565.41 1230.21 613.53 1214.46 622.625 1200.69 612.042 1170.57 629.43 1172.85 646.646 1157.47 655.527 1148.93 573.97ZM427.844 546.885 434.799 558.931 400.698 578.619 408.83 592.704 438.947 575.317 445.688 586.992 415.571 604.38 424.238 619.392 459.544 599.008 466.499 611.055 416.274 640.052 378.824 575.186ZM176.102 544.427 183.164 556.658 162.407 568.642 192.795 621.276 177.783 629.943 147.395 577.309 126.638 589.293 119.576 577.062ZM230.331 533.318C226.86 532.728 222.87 533.734 218.36 536.338L206.128 543.4 219.182 566.01 231.414 558.948C235.924 556.344 238.781 553.376 239.988 550.044 241.194 546.712 240.763 543.254 238.694 539.671 236.59 536.027 233.802 533.909 230.331 533.318ZM964.608 532.587 971.563 544.634 937.462 564.322 945.594 578.407 975.71 561.019 982.451 572.695 952.335 590.083 961.002 605.094 996.307 584.711 1003.26 596.757 953.038 625.754 915.588 560.889ZM712.866 530.129 719.927 542.361 699.171 554.345 729.559 606.978 714.547 615.645 684.159 563.012 663.402 574.996 656.34 562.764ZM767.095 519.021C763.624 518.43 759.633 519.437 755.124 522.04L742.892 529.102 755.946 551.712 768.178 544.65C772.687 542.047 775.545 539.079 776.752 535.747 777.958 532.415 777.526 528.957 775.458 525.374 773.353 521.729 770.566 519.611 767.095 519.021ZM228.756 517.857C234.093 517.329 238.921 518.165 243.24 520.367 247.559 522.569 251.109 526.079 253.891 530.897 256.673 535.716 257.913 540.539 257.612 545.367 257.31 550.195 255.563 554.766 252.371 559.08L278.957 571.53 262.833 580.839 239.891 569.992 239.15 570.42 226.084 577.964 236.516 596.033 221.504 604.7 184.055 539.835 212.132 523.625C217.877 520.308 223.418 518.385 228.756 517.857ZM1248.76 516.332 1255.83 528.563 1235.07 540.547 1265.46 593.181 1250.44 601.848 1220.06 549.214 1199.3 561.198 1192.24 548.966ZM765.52 503.559C770.857 503.031 775.685 503.868 780.004 506.07 784.322 508.271 787.873 511.781 790.655 516.6 793.437 521.418 794.677 526.242 794.376 531.07 794.074 535.897 792.327 540.469 789.134 544.783L815.72 557.233 799.597 566.542 776.655 555.695 775.913 556.123 762.847 563.666 773.28 581.736 758.268 590.403 720.818 525.538 748.896 509.327C754.641 506.01 760.182 504.087 765.52 503.559ZM28.0959 501.721 32.1483 532.494 52.7198 520.617ZM1280 498.297 1280 514.606 1278.79 515.305 1280 517.401 1280 552.069 1256.72 511.74ZM522.633 492.158 521.61 548.595 534.878 571.576 519.867 580.243 506.491 557.076 457.305 529.876 473.243 520.674 507.21 539.488 507.899 500.665ZM564.86 487.424 568.912 518.196 589.483 506.319ZM27.0953 482.654 93.5495 530.773 77.7963 539.869 64.0263 529.286 33.9102 546.673 36.19 563.89 20.8077 572.771 12.269 491.214ZM1058.53 478.361 1057.51 534.797 1070.78 557.778 1055.76 566.445 1042.39 543.279 993.202 516.078 1009.14 506.876 1043.11 525.69 1043.8 486.867ZM1100.76 473.626 1104.81 504.399 1125.38 492.522ZM301.49 472.033 308.445 484.08 274.344 503.768 282.477 517.853 312.592 500.465 319.334 512.141 289.218 529.529 297.885 544.54 333.19 524.157 340.145 536.203 289.921 565.2 252.471 500.335ZM563.859 468.356 630.313 516.476 614.56 525.571 600.79 514.988 570.674 532.376 572.954 549.593 557.571 558.474 549.033 476.916ZM838.254 457.736 845.209 469.782 811.108 489.47 819.24 503.555 849.356 486.168 856.097 497.844 825.981 515.231 834.648 530.243 869.954 509.859 876.908 521.906 826.684 550.903 789.234 486.038ZM1099.76 454.559 1166.21 502.679 1150.46 511.774 1136.69 501.191 1106.57 518.578 1108.85 535.795 1093.47 544.676 1084.93 463.119ZM363.844 436.034 370.799 448.08 336.698 467.768 344.83 481.853 374.946 464.465 381.688 476.141 351.572 493.529 360.238 508.54 395.544 488.157 402.499 500.203 352.274 529.2 314.824 464.335ZM112.102 433.575 119.164 445.807 98.407 457.791 128.795 510.424 113.783 519.091 83.3953 466.458 62.6384 478.442 55.5764 466.21ZM166.331 422.467C162.86 421.876 158.87 422.883 154.36 425.486L142.128 432.549 155.182 455.159 167.414 448.097C171.924 445.493 174.782 442.525 175.988 439.193 177.194 435.861 176.763 432.403 174.694 428.82 172.59 425.175 169.802 423.057 166.331 422.467ZM900.608 421.736 907.563 433.782 873.462 453.47 881.594 467.555 911.71 450.168 918.451 461.844 888.335 479.231 897.002 494.243 932.307 473.859 939.262 485.906 889.038 514.903 851.588 450.038ZM648.866 419.278 655.927 431.51 635.171 443.493 665.559 496.127 650.547 504.794 620.159 452.16 599.402 464.144 592.34 451.913ZM703.095 408.169C699.624 407.579 695.633 408.585 691.124 411.189L678.892 418.251 691.946 440.861 704.178 433.799C708.687 431.196 711.545 428.228 712.751 424.895 713.958 421.563 713.526 418.106 711.458 414.523 709.353 410.878 706.566 408.76 703.095 408.169ZM164.756 407.006C170.093 406.477 174.921 407.314 179.24 409.516 183.559 411.717 187.109 415.227 189.891 420.046 192.673 424.865 193.913 429.688 193.612 434.516 193.31 439.344 191.563 443.915 188.371 448.229L214.957 460.679 198.833 469.988 175.891 459.141 175.15 459.569 162.084 467.112 172.516 485.182 157.504 493.849 120.054 428.984 148.132 412.773C153.877 409.456 159.418 407.534 164.756 407.006ZM1184.76 405.48 1191.83 417.712 1171.07 429.696 1201.46 482.33 1186.44 490.997 1156.06 438.363 1135.3 450.347 1128.24 438.115ZM0.000152588 398.525 29.5493 419.922 13.7964 429.017 0.0263672 418.435 0.000183105 418.45ZM1238.99 394.372C1235.52 393.781 1231.53 394.788 1227.02 397.392L1214.79 404.454 1227.84 427.064 1240.08 420.002C1244.59 417.398 1247.44 414.43 1248.65 411.098 1249.86 407.766 1249.42 404.308 1247.36 400.725 1245.25 397.08 1242.46 394.963 1238.99 394.372ZM701.52 392.708C706.857 392.18 711.685 393.017 716.004 395.218 720.322 397.42 723.873 400.93 726.655 405.749 729.437 410.567 730.677 415.39 730.375 420.218 730.074 425.046 728.327 429.617 725.135 433.932L751.72 446.382 735.597 455.691 712.655 444.843 711.913 445.271 698.847 452.815 709.28 470.885 694.268 479.552 656.818 414.686 684.896 398.476C690.641 395.159 696.182 393.236 701.52 392.708ZM458.633 381.307 457.61 437.744 470.878 460.724 455.867 469.391 442.492 446.225 393.305 419.025 409.243 409.823 443.21 428.637 443.899 389.814ZM1237.42 378.911C1242.75 378.383 1247.58 379.219 1251.9 381.421 1256.22 383.622 1259.77 387.132 1262.55 391.951 1265.33 396.77 1266.58 401.593 1266.27 406.421 1265.97 411.249 1264.22 415.82 1261.03 420.134L1280 429.017 1280 436.982 1271.49 441.893 1248.55 431.046 1247.81 431.474 1234.75 439.018 1245.18 457.087 1230.17 465.754 1192.72 400.889 1220.79 384.678C1226.54 381.361 1232.08 379.439 1237.42 378.911ZM500.86 376.572 504.912 407.345 525.484 395.468ZM994.531 367.51 993.508 423.946 1006.78 446.927 991.764 455.594 978.389 432.428 929.202 405.227 945.141 396.025 979.107 414.839 979.797 376.016ZM1036.76 362.775 1040.81 393.547 1061.38 381.67ZM237.49 361.182 244.445 373.229 210.345 392.916 218.477 407.002 248.592 389.614 255.334 401.29 225.218 418.677 233.885 433.689 269.19 413.306 276.145 425.352 225.921 454.349 188.471 389.484ZM499.859 357.505 566.313 405.625 550.56 414.72 536.79 404.137 506.674 421.525 508.954 438.741 493.572 447.622 485.033 366.065ZM1280 350.495 1280 394.069 1261.13 361.389ZM774.254 346.885 781.209 358.931 747.108 378.619 755.24 392.704 785.356 375.317 792.097 386.993 761.981 404.38 770.648 419.392 805.953 399.008 812.908 411.055 762.684 440.052 725.234 375.186ZM1035.76 343.707 1102.21 391.827 1086.46 400.922 1072.69 390.34 1042.57 407.727 1044.85 424.944 1029.47 433.825 1020.93 352.268ZM299.844 325.182 306.799 337.229 272.698 356.917 280.83 371.002 310.946 353.614 317.688 365.29 287.572 382.677 296.238 397.689 331.544 377.306 338.499 389.352 288.274 418.349 250.824 353.484ZM48.1019 322.724 55.164 334.956 34.407 346.94 64.795 399.573 49.7833 408.24 19.3953 355.607 0.000152588 366.805 0.000183105 350.495ZM102.331 311.616C98.86 311.025 94.8696 312.032 90.36 314.635L78.1283 321.697 91.1821 344.307 103.414 337.245C107.924 334.642 110.782 331.674 111.988 328.342 113.194 325.009 112.763 321.552 110.694 317.969 108.59 314.324 105.802 312.206 102.331 311.616ZM836.608 310.885 843.563 322.931 809.462 342.619 817.594 356.704 847.71 339.317 854.451 350.992 824.335 368.38 833.002 383.392 868.307 363.008 875.262 375.055 825.038 404.052 787.588 339.186ZM584.865 308.427 591.927 320.658 571.171 332.642 601.559 385.276 586.547 393.943 556.159 341.309 535.402 353.293 528.34 341.062ZM639.095 297.318C635.624 296.728 631.633 297.734 627.124 300.338L614.892 307.4 627.946 330.01 640.178 322.948C644.687 320.344 647.545 317.376 648.751 314.044 649.958 310.712 649.526 307.254 647.458 303.671 645.353 300.026 642.566 297.909 639.095 297.318ZM100.756 296.154C106.093 295.626 110.921 296.463 115.24 298.665 119.559 300.866 123.109 304.376 125.891 309.195 128.673 314.013 129.913 318.837 129.612 323.664 129.311 328.492 127.563 333.063 124.371 337.378L150.957 349.828 134.833 359.137 111.891 348.29 111.149 348.718 98.0839 356.261 108.516 374.331 93.5045 382.998 56.0545 318.133 84.132 301.922C89.8772 298.605 95.4185 296.682 100.756 296.154ZM1120.76 294.629 1127.83 306.861 1107.07 318.845 1137.46 371.478 1122.44 380.145 1092.06 327.512 1071.3 339.496 1064.24 327.264ZM0.000152588 287.345 0.795074 288.722 0.000152588 289.181ZM1174.99 283.521C1171.52 282.93 1167.53 283.937 1163.02 286.54L1150.79 293.602 1163.84 316.212 1176.08 309.151C1180.59 306.547 1183.44 303.579 1184.65 300.247 1185.86 296.914 1185.42 293.457 1183.36 289.874 1181.25 286.229 1178.46 284.111 1174.99 283.521ZM637.52 281.857C642.857 281.329 647.685 282.166 652.004 284.367 656.322 286.569 659.873 290.079 662.655 294.897 665.437 299.716 666.677 304.539 666.375 309.367 666.074 314.195 664.327 318.766 661.135 323.08L687.72 335.53 671.597 344.839 648.655 333.992 647.913 334.42 634.847 341.964 645.28 360.033 630.268 368.7 592.818 303.835 620.896 287.625C626.641 284.308 632.182 282.385 637.52 281.857ZM394.633 270.456 393.61 326.892 406.878 349.873 391.867 358.54 378.491 335.374 329.305 308.173 345.243 298.971 379.21 317.786 379.899 278.962ZM1173.42 268.059C1178.75 267.531 1183.58 268.368 1187.9 270.57 1192.22 272.771 1195.77 276.281 1198.55 281.1 1201.33 285.919 1202.58 290.742 1202.27 295.57 1201.97 300.397 1200.23 304.969 1197.03 309.283L1223.62 321.733 1207.49 331.042 1184.55 320.195 1183.81 320.623 1170.75 328.166 1181.18 346.236 1166.17 354.903 1128.72 290.038 1156.79 273.827C1162.54 270.51 1168.08 268.588 1173.42 268.059ZM436.86 265.721 440.912 296.494 461.484 284.617ZM930.531 256.658 929.508 313.095 942.776 336.076 927.764 344.743 914.389 321.576 865.202 294.376 881.141 285.174 915.107 303.988 915.797 265.165ZM972.758 251.924 976.81 282.696 997.381 270.819ZM173.49 250.331 180.445 262.377 146.345 282.065 154.477 296.15 184.593 278.763 191.334 290.439 161.218 307.826 169.885 322.838 205.19 302.454 212.145 314.501 161.921 343.498 124.471 278.633ZM435.859 246.654 502.313 294.773 486.56 303.868 472.79 293.286 442.674 310.673 444.954 327.89 429.572 336.771 421.033 255.214ZM710.254 236.034 717.209 248.08 683.108 267.768 691.24 281.853 721.356 264.466 728.097 276.141 697.981 293.529 706.648 308.54 741.953 288.157 748.908 300.203 698.684 329.2 661.234 264.335ZM971.757 232.856 1038.21 280.976 1022.46 290.071 1008.69 279.488 978.572 296.876 980.852 314.093 965.469 322.974 956.931 241.416ZM1246.15 222.236 1253.11 234.282 1219.01 253.971 1227.14 268.056 1257.25 250.668 1264 262.344 1233.88 279.731 1242.55 294.743 1277.85 274.359 1280 278.081 1280 289.181 1234.58 315.403 1197.13 250.538ZM235.844 214.331 242.799 226.377 208.698 246.065 216.83 260.15 246.947 242.763 253.688 254.439 223.572 271.826 232.238 286.838 267.544 266.454 274.499 278.501 224.274 307.498 186.824 242.633ZM1280 202.694 1280 250.069 1259.49 214.538ZM38.3312 200.765C34.86 200.174 30.8697 201.18 26.3601 203.784L14.1282 210.846 27.1823 233.456 39.4141 226.394C43.9238 223.791 46.7815 220.823 47.9879 217.491 49.1941 214.158 48.7627 210.701 46.6941 207.118 44.5899 203.473 41.8022 201.355 38.3312 200.765ZM772.608 200.034 779.563 212.08 745.462 231.768 753.594 245.853 783.71 228.466 790.451 240.141 760.335 257.529 769.002 272.54 804.307 252.157 811.262 264.203 761.038 293.2 723.588 228.335ZM520.866 197.575 527.928 209.807 507.171 221.791 537.559 274.425 522.547 283.092 492.159 230.458 471.402 242.442 464.34 230.21ZM575.095 186.467C571.624 185.877 567.633 186.883 563.124 189.487L550.892 196.549 563.946 219.159 576.178 212.097C580.687 209.493 583.545 206.525 584.752 203.193 585.958 199.861 585.526 196.403 583.458 192.82 581.353 189.175 578.566 187.058 575.095 186.467ZM36.756 185.303C42.0934 184.775 46.9213 185.612 51.24 187.813 55.5587 190.015 59.1092 193.525 61.8912 198.344 64.6732 203.162 65.9134 207.985 65.612 212.813 65.3105 217.641 63.5634 222.212 60.3708 226.527L86.9567 238.977 70.8331 248.286 47.8909 237.438 47.1495 237.867 34.0837 245.41 44.5163 263.48 29.5045 272.147 0.000213623 221.044 0.000183105 202.694 20.1321 191.071C25.8772 187.754 31.4185 185.831 36.756 185.303ZM1056.76 183.778 1063.83 196.01 1043.07 207.994 1073.46 260.627 1058.44 269.294 1028.06 216.661 1007.3 228.645 1000.24 216.413ZM1110.99 172.67C1107.52 172.079 1103.53 173.085 1099.02 175.689L1086.79 182.751 1099.84 205.361 1112.08 198.299C1116.59 195.696 1119.44 192.728 1120.65 189.396 1121.86 186.063 1121.42 182.606 1119.36 179.023 1117.25 175.378 1114.46 173.26 1110.99 172.67ZM573.52 171.006C578.857 170.478 583.685 171.314 588.004 173.516 592.322 175.718 595.873 179.228 598.655 184.046 601.437 188.865 602.677 193.688 602.375 198.516 602.074 203.344 600.327 207.915 597.135 212.229L623.72 224.679 607.597 233.988 584.655 223.141 583.913 223.569 570.847 231.112 581.28 249.182 566.268 257.849 528.818 192.984 556.896 176.773C562.641 173.456 568.182 171.534 573.52 171.006ZM330.633 159.605 329.61 216.041 342.878 239.022 327.867 247.689 314.492 224.523 265.305 197.322 281.243 188.12 315.21 206.934 315.9 168.111ZM1109.42 157.208C1114.75 156.68 1119.58 157.517 1123.9 159.719 1128.22 161.92 1131.77 165.43 1134.55 170.249 1137.33 175.067 1138.57 179.89 1138.27 184.718 1137.97 189.546 1136.22 194.117 1133.03 198.432L1159.62 210.882 1143.49 220.191 1120.55 209.343 1119.81 209.772 1106.75 217.315 1117.18 235.385 1102.17 244.052 1064.72 179.186 1092.79 162.976C1098.54 159.659 1104.08 157.736 1109.42 157.208ZM372.86 154.87 376.912 185.642 397.484 173.765ZM866.531 145.807 865.508 202.244 878.776 225.224 863.764 233.891 850.389 210.725 801.202 183.525 817.141 174.323 851.107 193.137 851.797 154.314ZM908.758 141.072 912.81 171.845 933.381 159.968ZM109.49 139.48 116.445 151.526 82.3447 171.214 90.4767 185.299 120.593 167.912 127.334 179.587 97.2177 196.975 105.885 211.987 141.19 191.603 148.145 203.65 97.9207 232.647 60.4707 167.781ZM371.859 135.803 438.313 183.922 422.56 193.017 408.79 182.435 378.674 199.822 380.954 217.039 365.572 225.92 357.033 144.363ZM646.254 125.182 653.209 137.229 619.108 156.917 627.24 171.002 657.356 153.614 664.097 165.29 633.981 182.678 642.648 197.689 677.953 177.306 684.909 189.352 634.684 218.349 597.234 153.484ZM907.757 122.005 974.211 170.125 958.458 179.22 944.688 168.637 914.572 186.025 916.852 203.241 901.469 212.122 892.931 130.565ZM0.000152588 117.375 22.9568 128.125 6.83313 137.435 0.000213623 134.204ZM1182.15 111.385 1189.11 123.431 1155.01 143.119 1163.14 157.204 1193.25 139.817 1200 151.493 1169.88 168.88 1178.55 183.892 1213.85 163.508 1220.81 175.555 1170.58 204.552 1133.13 139.686ZM171.844 103.48 178.799 115.526 144.698 135.214 152.831 149.299 182.947 131.912 189.688 143.588 159.571 160.975 168.239 175.987 203.544 155.603 210.499 167.65 160.275 196.647 122.825 131.781ZM0.000183105 92.548 0.907867 94.7238C1.52798 97.1354 1.76263 99.5481 1.612 101.962 1.46127 104.376 0.949066 106.726 0.075592 109.011L0.000213623 109.147ZM708.608 89.1825 715.563 101.229 681.462 120.917 689.594 135.002 719.71 117.614 726.451 129.29 696.335 146.678 705.002 161.689 740.307 141.306 747.262 153.352 697.038 182.349 659.588 117.484ZM456.866 86.7242 463.928 98.956 443.171 110.94 473.559 163.573 458.547 172.24 428.159 119.607 407.402 131.591 400.34 119.359ZM511.095 75.6158C507.624 75.0253 503.634 76.0318 499.124 78.6354L486.892 85.6974 499.946 108.308 512.178 101.246C516.687 98.642 519.545 95.6742 520.752 92.3418 521.958 89.0096 521.526 85.5521 519.458 81.969 517.353 78.3242 514.566 76.2065 511.095 75.6158ZM1244.51 75.3851 1251.46 87.4314 1217.36 107.119 1225.49 121.204 1255.61 103.817 1262.35 115.493 1232.23 132.88 1240.9 147.892 1276.21 127.508 1280 134.082 1280 141.379 1232.94 168.552 1195.49 103.687ZM992.763 72.9267 999.825 85.1585 979.069 97.1423 1009.46 149.776 994.445 158.443 964.057 105.81 943.3 117.793 936.238 105.562ZM1046.99 61.8185C1043.52 61.2278 1039.53 62.2343 1035.02 64.8379L1022.79 71.8998 1035.84 94.5101 1048.08 87.4483C1052.59 84.8445 1055.44 81.8767 1056.65 78.5444 1057.86 75.2122 1057.42 71.7546 1055.36 68.1716 1053.25 64.5267 1050.46 62.409 1046.99 61.8185ZM509.52 60.1546C514.857 59.6265 519.685 60.4632 524.004 62.6648 528.322 64.8664 531.873 68.3764 534.655 73.1951 537.437 78.0135 538.677 82.8368 538.376 87.6647 538.074 92.4925 536.327 97.0637 533.135 101.378L559.721 113.828 543.597 123.137 520.655 112.29 519.913 112.718 506.848 120.261 517.28 138.331 502.268 146.998 464.818 82.1327 492.896 65.9222C498.641 62.6051 504.182 60.6827 509.52 60.1546ZM1280 54.8923 1280 62.6917 1273.1 58.8759ZM266.633 48.7534 265.61 105.19 278.878 128.171 263.867 136.838 250.492 113.672 201.305 86.4709 217.243 77.269 251.21 96.0831 251.9 57.2599ZM1045.42 46.357C1050.75 45.8291 1055.58 46.6658 1059.9 48.8673 1064.22 51.0689 1067.77 54.5789 1070.55 59.3975 1073.33 64.2161 1074.57 69.0392 1074.27 73.8673 1073.97 78.6951 1072.23 83.2662 1069.03 87.5805L1095.62 100.03 1079.49 109.34 1056.55 98.4924 1055.81 98.9203 1042.75 106.464 1053.18 124.533 1038.17 133.2 1000.72 68.3353 1028.79 52.1248C1034.54 48.8076 1040.08 46.8852 1045.42 46.357ZM308.86 44.0186 312.912 74.7913 333.484 62.9142ZM802.531 34.956 801.508 91.3924 814.776 114.373 799.764 123.04 786.389 99.874 737.202 72.6736 753.141 63.4715 787.107 82.2856 787.797 43.4625ZM844.758 30.2212 848.81 60.9937 869.381 49.1168ZM45.4904 28.6286 52.4454 40.675 18.3448 60.3631 26.4767 74.4481 56.5927 57.0606 63.3337 68.7364 33.2177 86.1238 41.8847 101.135 77.1901 80.752 84.1451 92.7985 33.9207 121.795 0.000152588 63.0435 0.000213623 54.8924ZM307.86 24.9514 374.313 73.0712 358.56 82.1662 344.79 71.5836 314.674 88.9711 316.954 106.188 301.572 115.069 293.033 33.5115ZM582.254 14.3312 589.209 26.3777 555.108 46.0656 563.24 60.1507 593.356 42.7632 600.097 54.4389 569.981 71.8263 578.648 86.8381 613.953 66.4546 620.908 78.501 570.684 107.498 533.234 42.6327ZM843.757 11.154 910.211 59.2738 894.458 68.3688 880.688 57.7861 850.572 75.1736 852.852 92.3902 837.469 101.271 828.931 19.714ZM1118.15 0.533798 1125.11 12.5801 1091.01 32.2682 1099.14 46.3531 1129.25 28.9657 1136 40.6415 1105.88 58.029 1114.55 73.0407 1149.85 52.6572 1156.81 64.7035 1106.58 93.7005 1069.13 28.8353ZM1135.62 0.000167847 1155.51 0.000167847 1161.49 10.3532 1179.42 0.000167847 1195.67 0.000137329 1198.35 4.64149 1168.23 22.029 1176.9 37.0408 1212.21 16.6572 1219.16 28.7035 1168.94 57.7006ZM961.263 0.000137329 981.279 7.62939e-05 989.178 13.6822 974.166 22.3493ZM902.968 0.000137329 922.984 0.000198364 945.457 38.9247 930.445 47.5919ZM875.292 0.000137329 891.324 0.000167847 879.3 6.94209ZM728.727 0.000137329 748.743 0.000137329 750.776 3.52208 735.764 12.1891ZM607.076 0.000167847 634.896 0.000183105 617.462 10.0655 625.594 24.1506 655.71 6.76311 662.451 18.4389 632.335 35.8265 641.002 50.8381 676.307 30.4546 683.262 42.5011 633.038 71.4981 595.588 6.63283ZM417.399 0.000152588 489.364 7.62939e-05 495.721 2.97672 479.597 12.2858 456.655 1.43861 455.913 1.86671 442.848 9.41008 453.28 27.4798 438.268 36.1467ZM351.076 0.000137329 379.324 0.00012207 379.171 0.0887146 409.559 52.7222 394.547 61.3892 364.159 8.75577 343.402 20.7396 336.341 8.50792ZM237.13 0.000106812 244.876 0.000167847 237.572 4.21754ZM181.392 0.00012207 204.879 0.000167847 214.878 17.3195 199.867 25.9866 186.492 2.82036ZM95.0766 0.000152588 112.1 0.000167847 114.799 4.67516 80.6985 24.3631 88.8304 38.4481 118.947 21.0607 125.688 32.7365 95.5714 50.124 104.239 65.1356 139.544 44.752 146.499 56.7984 96.2745 85.7954 58.8246 20.9301Z" stroke="#FFFFFF" stroke-linejoin="round" stroke-miterlimit="10" fill="none" fill-rule="evenodd"/></g></svg>