<svg width="714" height="543" xmlns="http://www.w3.org/2000/svg" xmlns:xlink="http://www.w3.org/1999/xlink" overflow="hidden"><defs><clipPath id="clip0"><rect x="303" y="124" width="714" height="543"/></clipPath></defs><g clip-path="url(#clip0)" transform="translate(-303 -124)"><path d="M685.297 403.176C686.945 403.42 688.134 405.025 688.554 406.758 689.618 411.129 689.237 415.786 689.217 420.25 689.196 424.796 688.28 429.261 687.634 433.742 686.182 443.824 684.252 453.918 680.968 463.587 679.647 467.479 677.602 475.304 673.267 476.829 670.785 477.704 669.3 475.451 668.724 473.399 667.533 469.159 667.276 464.294 667.578 459.907 668.564 445.541 670.253 430.14 675.39 416.571 676.903 412.58 679.201 405.222 683.508 403.43 684.148 403.164 684.748 403.094 685.297 403.176ZM884.703 395.894C871.972 397.565 865.768 411.239 867.473 423.112 868.573 430.749 873.771 438.12 881.84 439.29 883.917 439.592 886.306 439.662 888.383 439.343 895.246 438.28 899.675 432.09 901.744 425.974 904.775 417 905.814 406.12 897.381 399.616 895.79 398.389 893.933 397.572 892.064 396.871 889.807 396.023 887.103 395.579 884.703 395.894ZM692.29 367.171C691.276 367.112 690.26 367.127 689.217 367.276 673.66 369.504 661.292 380.399 652.946 393.267 638.628 415.336 634.211 442.205 636.799 468.084 638.521 485.296 644.525 508.51 664.679 511.65 667.353 512.067 670.584 512.087 673.267 511.707 686.877 509.769 695.973 498.158 702.246 486.891 706.663 478.955 709.861 470.21 712.434 461.543 717.979 442.859 720.728 423.414 719.873 403.897 719.206 388.638 712.516 369.945 695.351 367.51 694.317 367.364 693.304 367.23 692.29 367.171ZM857.136 299.587C852.428 299.676 847.812 301.835 844.898 306.593 841.213 312.613 838.935 319.622 836.526 326.217 831.987 338.675 827.918 351.21 823.869 363.831 822.172 369.133 820.597 374.479 818.904 379.775 817.559 383.994 815.62 388.43 815.178 392.858L814.36 392.858C814.356 389.02 813.571 385.227 813.203 381.411 812.573 374.899 812.201 367.151 808.786 361.378 802.971 351.545 789.483 350.396 781.66 358.517 778.498 361.797 776.457 366.279 774.564 370.372 772.004 375.908 769.432 381.389 767.35 387.134 766.417 389.71 765.505 392.311 764.606 394.902 764.074 396.442 763.841 398.118 762.831 399.399 763.874 393.775 763.984 387.917 764.536 382.228 765.452 372.822 766.499 363.419 767.399 354.018 768.09 346.767 770.478 338.674 768.434 331.532 764.512 317.831 742.337 316.696 738.661 331.124 735.426 343.806 734.211 356.986 732.907 369.963 731.471 384.265 730.318 398.534 729.688 412.891 728.94 429.968 726.911 447.299 728.547 464.404 729.034 469.499 729.893 475.1 732.616 479.531 737.88 488.109 749.188 491.065 757.514 484.944 760.32 482.88 762.274 479.936 764.193 477.078 768.323 470.917 771.349 464.094 774.593 457.454 778.875 448.681 782.437 439.498 786.142 430.471 787.082 433.247 787.127 436.178 787.545 439.057 788.825 447.883 789.589 457.217 792.665 465.631 794.567 470.844 796.685 476.114 802.091 478.628 804.623 479.805 807.543 480.067 810.271 479.703 812.81 479.368 815.322 479.176 817.632 477.929 825.497 473.693 828.192 462.847 830.699 455.001 835.827 438.938 839.917 422.56 844.505 406.35 849.245 389.606 854.631 373.018 860.058 356.471 863.13 347.112 866.663 337.917 870.066 328.671 871.759 324.079 874.515 318.99 874 313.952 873.088 305.043 864.983 299.439 857.136 299.587ZM425.516 285.001C430.821 285.408 435.744 287.474 439.536 292.284 445.449 299.786 446.31 308.922 447.178 318.041 450.073 348.451 434.76 378.779 417.428 402.67 412.132 409.968 406.124 417.405 399.26 423.284 396.82 425.373 394.292 428.083 391.08 428.836 390.949 422.45 390.327 415.994 389.89 409.62 389.676 406.496 389.975 403.345 389.837 400.217 389.355 389.202 388.631 378.137 388.627 367.101 388.621 352.802 387.347 338.467 386.997 324.173 386.857 318.46 386.816 312.717 386.566 307.002 386.468 304.784 385.354 301.415 386.593 299.369 387.343 298.13 389.053 297.415 390.262 296.72 393.23 295.017 396.158 293.203 399.26 291.755 406.767 288.25 416.673 284.322 425.516 285.001ZM500.683 281.016C488.018 283.009 486.497 297.184 486.371 307.82 486.118 329.086 485.706 350.37 485.959 371.598 486.038 378.264 485.685 384.972 485.976 391.631 486.142 395.405 486.45 399.207 488.076 402.67 491.311 409.559 498.799 412.192 506 411.133 518.42 409.301 519.087 394.172 519.087 384.272 519.087 364.897 518.209 345.613 518.684 326.217 518.827 320.393 518.847 314.472 519.103 308.638 519.309 303.931 519.987 299.049 519.42 294.328 518.362 285.515 509.108 279.69 500.683 281.016ZM566.932 276C568.011 275.944 569.093 275.975 570.208 276.184 580.64 278.134 585.347 288.562 587.006 298.008 589.97 314.878 584.194 332.512 575.041 346.659 572.363 350.799 569.084 357.182 564.482 359.333 564.482 331.676 563.664 304.015 563.664 276.339 564.773 276.199 565.852 276.056 566.932 276ZM426.789 253.4C411.166 253.518 394.983 259.695 381.265 265.992 375.385 268.691 369.581 271.697 364.088 275.133 358.186 278.826 352.289 282.632 346.912 287.071 336.853 295.377 325.55 305.639 322.39 318.858 321.849 321.122 321.911 323.495 321.971 325.809 322.021 327.725 322.657 329.35 323.322 331.124 323.865 332.57 324.477 333.885 325.478 335.079 332.679 343.672 344.968 334.508 350.577 328.67 352.008 327.18 353.333 325.606 354.273 323.765 354.757 325.399 354.592 326.988 354.752 328.671 355.205 333.431 355.083 338.194 355.091 342.98 355.107 352.626 355.679 362.347 355.915 372.007 356.199 383.573 356.718 395.217 357.508 406.758 357.928 412.879 357.85 419.044 358.432 425.156 358.86 429.649 359.135 434.171 359.706 438.648 359.967 440.688 360.704 442.744 360.86 444.78 360.98 446.35 359.818 447.152 358.77 448.121 357.052 449.707 355.422 451.358 354.202 453.366 349.354 461.351 351.771 472.867 359.999 477.536 366.573 481.265 375.331 478.46 380.856 474.098 383.801 471.776 386.321 468.227 389.853 466.858 389.761 471.355 388.735 475.872 388.287 480.349 387.262 490.587 385.892 500.795 384.653 511.012 382.394 529.647 380.534 548.343 378.742 567.023 377.644 578.466 375.954 589.897 375.167 601.365L374.276 614.448C374.108 616.905 373.536 619.366 374.226 621.807 377.41 633.07 392.065 635.822 400.895 629.558 404.061 627.31 406.403 623.626 406.912 619.763 407.214 617.461 406.879 615.122 407.1 612.812 408.009 603.25 409.718 593.675 411.244 584.194 412.032 579.296 416.209 574.464 418.727 570.293 423.597 562.223 428.923 554.418 434.158 546.581 436.824 542.591 439.6 537.251 443.428 534.316 445.638 540.142 450.581 545.391 453.888 550.669 458.814 558.535 463.954 566.344 469.241 573.973 473.205 579.693 477.395 585.801 483.098 589.946 485.196 591.471 487.522 592.681 490.05 593.291 501.141 595.956 510.271 587.039 511.246 576.426 511.767 570.768 508.769 565.318 504.364 561.925 502.387 560.4 499.699 559.872 498.032 557.983 494.777 554.296 492.388 549.561 489.666 545.473L473.01 520.415C470.839 517.161 468.643 513.919 466.566 510.603 465.757 509.311 464.193 507.7 464.145 506.106 464.091 504.299 465.907 502.553 466.88 501.184 469.5 497.496 472.166 493.841 474.8 490.161 481.595 480.672 488.707 471.412 495.54 461.952 498.946 457.238 503.522 452.311 505.61 446.824 509.422 436.808 502.37 424.841 491.277 424.355 483.231 424.003 478.751 429.519 474.357 435.377 471.808 438.775 469.238 442.16 466.744 445.598 455.637 460.901 444.587 476.281 433.218 491.388 430.288 495.28 427.449 499.278 424.616 503.244 422.849 505.718 421.165 508.584 418.89 510.603 419.685 500.546 422.412 490.239 424.39 480.349 425.248 476.061 426.834 471.261 426.617 466.858 426.286 460.112 419.732 454.057 413.164 453.775 415.801 450.737 419.303 448.444 422.162 445.598 430.408 437.393 438.288 429.085 445.377 419.841 467.912 390.451 483.057 352.685 479.487 315.179 477.939 298.927 474.305 282.581 463.345 269.798 460.527 266.511 457.252 263.429 453.652 261.016 445.335 255.441 436.163 253.33 426.789 253.4ZM567.009 243.016C551.506 243.559 535.437 250.959 525.706 262.03 518.295 270.461 515.838 284.395 526.039 291.81 527.781 293.076 529.643 293.963 531.765 294.328L531.765 370.781C531.765 375.148 532.331 379.953 531.678 384.272 531.4 386.107 530.383 387.764 529.993 389.587 529.127 393.647 529.713 398.613 531.726 402.261 533.619 405.692 536.961 406.965 539.535 409.62 536.562 409.862 533.207 410.508 530.538 411.881 521.625 416.46 521.419 429.151 520.377 437.83 517.277 463.648 514.891 489.552 513.754 515.509 513.588 519.299 513.584 523.171 513.325 526.957 512.893 533.265 512.154 540.129 514.558 546.172 519.26 557.987 536.544 559.181 542.856 548.216 546.376 542.1 545.511 535.334 545.676 528.592 545.872 520.554 546.528 512.504 546.88 504.471 547.519 489.879 548.743 475.222 550.577 460.725 555.561 465.149 558.885 472.59 562.202 478.305 568.936 489.904 575.912 501.551 581.27 513.874 585.01 522.472 588.904 534.843 599.653 536.634 612.315 538.748 619.402 527.3 620.801 516.327 624.171 489.957 625.933 463.395 629.213 437.012 630.416 427.356 631.696 417.691 632.407 407.985 632.694 404.061 633.941 399.624 632.964 395.72 629.876 383.394 612.343 382.03 605.105 390.814 602.373 394.131 601.804 398.988 601.04 403.079 599.412 411.767 598.362 420.495 597.146 429.245 595.813 438.836 594.962 448.615 594.3 458.272 594.113 461.003 593.575 463.71 593.519 466.449 589.841 461.633 586.907 456.052 583.683 450.913 578.434 442.548 572.908 434.375 567.109 426.383 562.567 420.123 557.723 413.758 551.395 409.212 554.172 408.265 556.626 406.682 559.165 405.238 567.005 400.78 574.153 394.996 580.771 388.902 600.287 370.932 615.378 347.413 619.513 320.903 620.31 315.786 620.101 310.532 620.101 305.367 620.101 280.812 607.084 252.507 582.068 244.875 577.282 243.415 572.177 242.834 567.009 243.016ZM762.357 221.056C763.372 221.336 763.971 222.516 764.25 223.6 765.027 226.625 764.945 229.906 764.872 233.003 764.614 243.473 761.702 253.704 758.798 263.665 757.964 266.529 756.017 272.596 752.607 273.199 750.672 273.541 749.593 271.814 749.126 270.206 748.214 267.046 748.517 263.645 748.517 260.395 748.517 255.975 749.437 251.622 750.353 247.312 751.613 241.383 752.84 235.288 755.343 229.732 756.615 226.914 757.878 222.21 761.199 221.112 761.634 220.969 762.018 220.962 762.357 221.056ZM508.454 217.095C506.718 216.968 504.856 216.961 503.137 217.238 496.098 218.371 493.079 224.701 491.637 230.958 489.197 241.55 488.695 252.342 491.806 262.848 494.004 270.269 499.534 275.489 507.636 274.162 514.941 272.967 517.625 266.022 518.923 259.577 519.443 256.998 519.793 254.415 520.14 251.809 521.192 243.922 521.145 235.441 519.24 227.688 517.85 222.032 514.726 217.555 508.454 217.095ZM763.484 181.493C761.184 181.262 758.782 181.306 756.287 181.664 744.893 183.3 737.082 194.26 731.864 203.566 724.073 217.471 720.175 233.602 718.593 249.356 717.517 260.078 717.239 271.024 719.398 281.654 721.676 292.865 726.502 306.628 738.293 311.038 742.48 312.603 747.793 312.772 752.198 312.199 764.479 310.6 773.664 300.262 779.68 290.24 785.872 279.921 789.802 268.379 792.481 256.715 795.716 242.615 797.286 228.065 794.149 213.787 790.732 198.243 779.587 183.114 763.484 181.493ZM944.409 176.344C942.29 176.336 940.173 176.467 938.277 176.763 921.743 179.345 906.353 190.116 898.918 205.202 897.462 208.148 896.019 211.705 895.782 215.014 895.234 222.592 899.601 230.318 907.196 232.394 912.786 233.921 919.498 232.584 923.366 228.081 928.814 221.739 931.456 210.051 941.549 209.327 950.419 208.691 951.516 220.438 951.36 226.87 950.833 248.35 935.157 265.828 922.491 281.654 907.449 300.45 893.933 320.152 885.791 342.98 881.198 355.857 875.685 376.431 890.428 385.029 892.641 386.318 895.221 387.093 897.79 387.127 905.859 387.232 912.987 381.718 914.398 373.643 914.696 371.93 914.152 370.067 914.148 368.328 914.14 365.35 914.549 362.262 915.093 359.333 916.553 351.499 919.195 344.297 922.937 337.256 931.026 322.04 943.103 309.057 953.646 295.555 969.899 274.729 983.673 251.594 983.673 224.417 983.673 207.519 978.422 187.498 961.552 179.947 957.969 178.344 954.432 177.286 950.546 176.757 948.647 176.499 946.527 176.352 944.409 176.344ZM722.249 155.58C717.918 155.9 713.669 157.82 710.675 161.458 708.373 164.256 706.725 167.667 705.044 170.859 701.563 177.478 698.656 184.383 695.854 191.301 689.703 206.485 682.763 221.465 677.766 237.091 672.609 231.705 668.094 225.615 663.28 219.92 653.825 208.737 644.492 197.509 635.994 185.578 630.129 177.348 625.193 166.275 613.558 166.006 611.337 165.955 608.52 166.672 606.606 167.785 605.007 168.713 603.465 169.909 602.23 171.284 595.496 178.793 598.989 188.49 603.395 196.207 608.982 205.988 616.073 214.909 623.201 223.599 631.127 233.268 639.36 242.657 647.874 251.809 652.087 256.337 656.213 260.925 660.589 265.301 662.368 267.081 664.065 269.477 666.315 270.616 664.503 276.962 661.877 283.156 659.771 289.422 655.763 301.353 652.017 313.369 648.332 325.4 645.47 334.737 642.423 344.045 640.313 353.61 639.724 356.293 638.955 359.463 639.536 362.195 641.298 370.517 649.993 376.932 658.544 375 667.272 373.029 670.192 365.779 672.465 358.107 675.504 347.865 679.078 337.737 681.917 327.444 685.863 313.137 691.012 298.957 695.879 284.925 703.522 262.885 711.092 240.849 719.562 219.102 723.271 209.578 727.226 200.063 731.737 190.892 734.42 185.435 738.391 179.796 739.34 173.721 739.683 171.538 739.773 168.906 739.16 166.771 736.916 158.959 729.468 155.047 722.249 155.58ZM880.728 142.915C878.724 142.954 876.734 143.409 874.888 144.362 870.863 146.438 867.964 150.585 865.935 154.506 856.222 173.288 856.791 195.478 850.873 215.423 849.065 221.508 846.714 233.101 838.898 234.078 835.848 234.46 833.66 231.688 833.259 228.914 832.523 223.798 834.379 217.572 835.381 212.561 837.888 200.023 841.046 187.553 843.168 174.948 843.994 170.013 845.773 164.873 845.405 159.821 844.992 154.188 840.285 149.828 835.218 147.945 833.369 147.258 831.443 147.149 829.492 147.147 827.766 147.145 826.216 147.19 824.585 147.809 814.042 151.807 812.819 162.557 810.32 172.086 805.097 191.987 801.826 212.917 800.419 233.411 799.646 244.687 798.987 256.835 803.854 267.345 805.236 270.331 807.13 273.186 809.457 275.516 811.273 277.332 813.318 278.903 815.587 280.108 831.496 288.55 849.286 273.425 855.257 259.168 857.588 265.056 859.257 270.741 864.549 274.776 873.133 281.319 886.858 277.552 890.616 267.345 891.496 264.947 892.256 262.148 891.995 259.577 891.52 254.936 888.882 251.837 887.136 247.721 885.844 244.673 885.521 241.583 885.521 238.318 885.521 218.532 889.418 199.122 893.655 179.854 894.608 175.503 895.467 171.138 896.338 166.771 897.332 161.796 898.28 156.352 895.72 151.644 892.892 146.437 886.742 142.8 880.728 142.915ZM878.875 125.1C884.214 124.693 889.655 125.529 894.518 127.659 900.992 130.496 905.225 134.826 910.063 139.788 913.748 143.563 917.514 147.3 921.031 151.235 922.594 152.985 923.992 154.975 925.24 156.959 925.857 157.934 926.352 159.593 927.407 160.181 928.327 160.696 929.562 160.199 930.507 159.994 932.388 159.587 934.315 159.264 936.233 159.072 942.936 158.4 949.614 158.358 956.272 159.514 964.635 160.966 973.015 164.834 979.583 170.231 984.519 174.289 988.772 179.283 993.116 183.942 997.295 188.428 1001.82 192.602 1005.11 197.843 1012.12 209.041 1015.02 221.578 1015.59 234.638 1015.72 237.654 1016.15 240.591 1015.94 243.632 1014.15 269.845 1003.18 292.981 987.754 313.916 979.235 325.474 969.678 336.236 961.286 347.886 957.037 353.777 952.354 360.164 949.97 367.101 948.408 371.661 946.984 376.187 946.526 381.002 946.24 384.018 947.07 386.973 946.829 389.996 946.629 392.454 945.622 395.048 944.784 397.355 943.287 401.471 940.895 405.444 938.089 408.796 936.862 410.258 934.081 411.742 933.583 413.643 933.28 414.788 934.339 416.689 934.658 417.797 935.456 420.557 936.089 423.508 936.216 426.383 936.817 440.079 932.135 455.324 921.493 464.507 911.069 473.501 894.215 475.386 882.249 468.309 878.724 466.22 875.701 463.648 872.847 460.725 871.084 458.918 869.592 456.886 867.526 455.41 866.577 462.765 863.67 470.545 861.134 477.487 856.545 490.047 851.515 503.657 838.252 509.36 835.86 510.391 833.288 511.102 830.719 511.523 827.096 512.112 822.928 512.112 819.268 511.76 812.97 511.159 807.085 509.422 802.092 505.452 800.419 504.119 798.783 502.798 797.315 501.237 796.812 500.701 796.063 499.536 795.172 499.785 793.728 500.19 792.391 503.309 791.573 504.471 789.111 507.962 786.285 511.319 782.87 513.915 772.994 521.425 759.126 523.473 747.699 518.244 742.301 515.775 737.953 511.899 733.794 507.741 725.161 526.229 708.042 542.611 687.172 544.606 684.342 544.876 681.426 545.228 678.584 544.823 673.942 544.16 668.904 543.22 664.679 541.115 660.401 538.985 656.909 535.849 652.819 533.498 652.189 547.905 642.537 562.329 629.099 567.53 624.866 569.169 620.494 569.476 616.012 569.476 612.409 569.476 608.79 569.279 605.379 568 593.534 563.552 587.147 552.529 577.978 544.537 577.978 551.38 578.036 558.4 575.849 564.979 571.107 579.239 558.176 588.691 543.216 588.691 543.216 593.65 542.953 598.732 541.123 603.409 534.281 620.899 515.434 630.613 497.412 625.004 485.809 621.39 477.942 611.402 469.878 602.927 466.021 598.871 462.181 594.86 458.855 590.343 457.525 588.536 455.867 586.806 455.288 584.603 452.34 586.778 450.661 590.547 448.725 593.597 446.703 596.786 444.142 600.151 443.089 603.818 442.255 606.725 442.218 609.848 441.665 612.812 440.789 617.514 439.703 622.338 439.375 627.122 439.101 631.116 439.52 635.02 438.656 638.978 436.735 647.784 431.118 655.802 423.389 660.401 420.642 662.032 417.874 663.443 414.8 664.326 410.7 665.503 406.407 666.301 402.122 665.892 395.176 665.229 388.491 663.063 382.901 658.807 379.087 655.9 375.967 652.286 372.707 648.794 366.57 642.228 359.919 636.337 357.033 627.531 355.617 623.205 355.978 618.88 356.281 614.448 356.731 607.89 357.23 601.369 357.885 594.824 359.603 577.648 360.901 560.449 362.978 543.31 363.821 536.364 364.547 529.41 365.379 522.459 365.825 518.735 366.693 514.765 366.535 511.012 366.424 508.408 364.373 507.782 362.453 506.478 360.44 505.108 358.536 503.33 356.838 501.588 348.666 493.195 338.019 484.388 335.009 472.581 332.985 464.637 333.492 456.085 336.502 448.46 337.31 446.412 338.55 444.318 339.789 442.499 340.532 441.407 341.594 440.426 341.759 439.057 342.115 436.101 341.133 432.609 340.847 429.653 340.334 424.355 339.951 419.02 339.587 413.709 338.973 404.745 338.733 395.698 338.34 386.725 338.191 383.326 338.52 379.9 338.287 376.504 338.179 374.926 338.369 371.866 337.494 370.543 336.322 368.771 332.705 367.732 330.963 366.421 327.214 363.598 324.162 359.833 320.911 356.471 317.135 352.565 312.831 348.796 309.876 344.206 302.655 332.995 302.428 319.158 307.347 307.002 314.357 289.678 330.46 276.424 345.276 265.945 363.54 253.028 384.761 242.996 406.621 238.051 418.115 235.452 430.557 234.041 442.201 236.779 449.512 238.498 456.763 241.592 463.058 245.683 466.097 247.657 468.702 250.152 471.647 252.218 471.647 237.428 472.508 219.355 483.523 208.07 493.577 197.768 510.913 196.07 523.177 203.343 528.65 206.589 532.925 211.981 537.151 216.649 540.515 220.366 545.067 223.682 546.897 228.505 552.468 227.229 557.948 225.848 563.664 225.304 572.706 224.443 582.543 225.895 591.065 228.951 596.171 230.782 600.573 233.894 605.379 236.273 605.812 235.17 606.663 233.816 606.524 232.594 606.352 231.087 604.868 229.65 603.98 228.505 601.89 225.821 599.874 223.099 597.898 220.329 592.639 212.95 587.689 205.369 584.113 197.025 582.453 193.152 580.925 189.404 580.502 185.169 578.552 165.675 594.253 147.976 613.967 147.976 620.253 147.976 626.6 150.163 631.962 153.339 637.605 156.681 641.895 162.033 646.312 166.771 649.936 170.66 654.091 174.228 657.08 178.664 660.499 183.735 663.82 188.855 667.489 193.754 669.157 195.98 670.695 198.536 672.858 200.296 673.328 197.572 674.703 195.091 675.696 192.528 677.946 186.713 680.539 181.044 683.086 175.357 687.291 165.966 691.458 155.524 698.66 147.971 709.195 136.922 726.527 134.206 739.929 141.496 747.2 145.452 752.173 152.018 757.923 157.777 759.522 159.377 760.982 161.573 762.847 162.851 764.283 163.836 766.078 163.792 767.738 163.977 769.926 164.222 772.192 164.757 774.282 165.442 780.646 167.529 785.852 171.048 791.458 174.539 791.724 171.49 792.767 168.527 793.417 165.544 794.706 159.623 796.109 153.371 798.926 147.965 803.891 138.442 812.892 131.741 823.358 129.649 826.634 128.994 830.249 128.905 833.582 129.228 838.539 129.707 843.679 131.707 847.896 134.301 849.372 135.21 852.644 138.578 854.37 138.305 855.646 138.103 856.697 136.184 857.478 135.297 859.29 133.236 861.535 131.471 863.846 129.998 868.299 127.156 873.536 125.507 878.875 125.1Z" fill="#FFFFFF" fill-rule="evenodd"/></g></svg>