<svg width="311" height="311" xmlns="http://www.w3.org/2000/svg" xmlns:xlink="http://www.w3.org/1999/xlink" overflow="hidden"><defs><clipPath id="clip0"><rect x="278" y="205" width="311" height="311"/></clipPath><linearGradient x1="433" y1="515" x2="433" y2="205" gradientUnits="userSpaceOnUse" spreadMethod="reflect" id="fill1"><stop offset="0" stop-color="#26DAD6"/><stop offset="0.84" stop-color="#09BFFF"/><stop offset="1" stop-color="#09BFFF"/></linearGradient></defs><g clip-path="url(#clip0)" transform="translate(-278 -205)"><path d="M382.709 357.565C380.849 357.559 378.88 357.709 378.255 358.036 377.767 358.255 376.355 358.91 375.16 359.455 372.01 360.929 369.077 363.931 367.448 367.315 366.199 369.99 366.09 370.809 366.307 374.957 366.688 382.053 369.186 385.928 375.16 388.658 376.68 389.313 378.255 390.077 378.69 390.35 379.776 390.95 385.044 390.95 385.424 390.35 385.587 390.131 386.511 389.749 387.488 389.531 388.466 389.313 390.149 388.439 391.29 387.566 392.376 386.638 393.517 385.928 393.788 385.928 394.494 385.928 397.698 380.579 398.079 378.723 398.242 377.85 398.622 377.031 398.839 376.868 399.491 376.485 399.491 370.809 398.839 370.427 398.567 370.263 398.187 369.226 398.024 368.134 397.481 365.405 391.507 359.401 388.792 358.855 387.705 358.691 386.674 358.309 386.511 358.036 386.321 357.736 384.569 357.572 382.709 357.565ZM487.907 353.615C479.924 353.67 474.221 358.091 471.289 366.551 469.985 370.263 472.158 377.741 475.579 381.453 477.263 383.254 480.793 385.219 483.726 385.983 486.55 386.693 491.926 386.038 494.805 384.564 498.009 382.981 501.376 379.378 502.571 376.376 504.689 371.136 505.178 368.298 504.146 367.643 503.875 367.479 503.603 366.77 503.603 366.169 503.603 364.586 501.214 359.619 499.856 358.418 498.607 357.272 497.032 356.29 494.914 355.307 494.153 354.98 493.067 354.434 492.524 354.161 491.981 353.888 489.863 353.615 487.907 353.615ZM448.537 302.463C445.973 302.504 442.776 304.08 440.984 306.455 439.789 307.983 439.517 308.966 439.517 311.313 439.517 315.406 441.038 317.481 445.491 319.719 450.597 322.175 459.069 330.199 459.069 332.491 459.069 332.764 459.286 332.982 459.558 332.982 459.829 332.982 460.372 333.91 460.753 335.057 461.078 336.148 461.622 337.349 461.839 337.677 462.11 338.004 462.491 339.86 462.653 341.77 462.816 343.681 463.196 345.81 463.522 346.41 463.903 347.229 463.903 347.938 463.468 348.702 463.142 349.303 462.871 350.94 462.871 352.305 462.871 357.272 459.449 364.313 454.67 369.062 450.379 373.374 444.46 376.54 439.789 377.031 438.105 377.195 436.639 377.577 436.476 377.796 436.096 378.45 430.991 378.396 430.556 377.741 430.393 377.468 429.47 377.195 428.601 377.195 426.592 377.195 422.029 376.103 421.378 375.503 419.64 373.92 413.72 375.776 411.819 378.505 409.701 381.507 408.886 385.383 410.19 386.201 410.516 386.365 410.733 387.02 410.733 387.566 410.733 389.203 414.86 392.315 417.956 393.024 419.531 393.352 421.269 393.843 421.867 394.116 422.464 394.389 423.442 394.716 424.039 394.88 426.157 395.426 444.297 394.88 445.057 394.28 445.437 393.952 446.632 393.516 447.664 393.297 448.696 393.079 449.891 392.697 450.379 392.479 455.376 390.131 456.896 389.313 458.526 388.112 459.558 387.348 461.078 386.365 461.839 385.983 462.653 385.601 464.609 383.909 466.184 382.326L469.062 379.378 468.139 377.796C467.65 376.922 467.215 375.066 467.215 373.756 467.215 372.392 466.998 371.082 466.672 370.918 466.021 370.481 465.966 368.08 466.618 367.698 466.835 367.534 467.215 366.06 467.378 364.477 467.867 359.728 471.723 354.434 477.371 350.831 478.675 350.012 479.924 349.357 480.195 349.357 481.499 349.357 481.825 347.829 481.336 343.899 480.739 338.604 479.761 333.91 479.109 333.31 478.838 332.982 478.621 332.382 478.621 331.945 478.621 331.509 477.48 328.779 476.068 325.941 473.787 321.301 472.809 319.991 467.27 314.369 461.241 308.365 459.775 307.219 454.181 304.599 452.823 303.998 451.303 303.234 450.814 302.961 450.176 302.607 449.392 302.45 448.537 302.463ZM364.895 296.411 362.343 299.086C360.496 301.051 359.681 302.361 359.41 303.998 359.193 305.199 358.813 306.345 358.595 306.509 358.324 306.673 357.944 307.983 357.781 309.402 357.563 310.821 357.292 312.35 357.183 312.786 356.803 313.878 356.803 325.341 357.183 326.432 357.292 326.869 357.563 328.124 357.726 329.161 358.378 333.037 358.65 334.129 360.17 337.622 360.442 338.222 361.094 339.751 361.582 341.061 362.125 342.316 362.723 343.353 362.886 343.353 363.049 343.353 363.537 344.172 363.972 345.155 364.841 347.12 364.95 347.338 369.023 351.759L371.956 354.925 373.856 353.997C375.16 353.287 377.387 352.905 381.242 352.742 386.565 352.523 386.891 352.578 390.475 354.215 396.015 356.835 400.685 361.857 402.206 366.879 402.423 367.534 403.13 367.698 405.139 367.643 406.551 367.588 408.126 367.425 408.561 367.206 408.995 367.042 410.95 366.77 412.851 366.606 414.752 366.442 416.598 366.06 416.924 365.787 417.25 365.569 418.282 365.187 419.151 364.968 420.617 364.641 423.333 363.549 425.397 362.403 425.831 362.13 427.569 361.311 429.198 360.493 431.262 359.51 434.086 357.108 438.214 352.96 443.59 347.556 444.568 346.301 447.066 341.334 448.587 338.222 449.836 335.111 449.836 334.347 449.836 331.345 446.904 327.251 444.351 326.705 443.482 326.487 442.667 326.105 442.504 325.832 441.635 324.467 437.236 325.941 434.466 328.561 433.597 329.325 431.914 331.891 430.719 334.183 429.198 337.185 427.46 339.423 424.854 341.879 421.541 345.1 416.273 348.266 414.426 348.266 413.992 348.266 413.34 348.593 412.96 348.975 412.525 349.412 410.081 349.63 404.596 349.576 398.404 349.576 396.558 349.412 395.255 348.648 394.386 348.157 393.299 347.72 392.865 347.72 392.43 347.72 391.29 347.12 390.312 346.355 389.335 345.591 388.303 344.991 387.977 344.991 387.162 344.991 380.645 338.495 379.722 336.749 378.907 335.22 376.68 330.744 375.812 328.779 375.54 328.179 375.431 327.36 375.649 327.087 375.812 326.76 375.757 326.378 375.431 326.159 374.399 325.504 374.78 314.369 375.974 310.603 376.572 308.747 377.061 306.728 377.061 306.182 377.061 305.636 377.332 305.035 377.604 304.872 377.984 304.653 377.984 304.271 377.712 303.889 377.441 303.507 377.061 302.579 376.898 301.815 376.68 300.996 375.54 299.468 374.345 298.376 372.281 296.52 371.956 296.411 368.534 296.411ZM459.788 270.232C458.526 270.266 457.385 270.429 457.222 270.702 457.059 270.921 455.159 271.303 453.04 271.521 450.868 271.685 448.804 272.122 448.37 272.449 447.99 272.831 447.664 272.94 447.664 272.777 447.664 272.395 442.015 274.578 440.06 275.724 439.626 275.997 438.214 276.707 436.965 277.362 435.77 277.962 434.303 278.945 433.76 279.545 433.272 280.091 432.566 280.582 432.185 280.582 431.479 280.582 424.528 288.115 421.921 291.608 419.694 294.665 416.761 300.723 416.381 303.016 416.001 305.145 417.196 308.365 419.042 310.221 419.585 310.767 421.378 311.476 423.007 311.858 428.221 312.95 431.86 310.767 434.629 304.872 436.041 301.76 442.015 294.446 443.916 293.355 444.84 292.863 450.216 290.189 452.497 289.097 454.29 288.278 468.736 288.278 469.279 289.097 469.496 289.425 470.474 289.916 471.506 290.134 473.461 290.571 476.665 292.154 478.132 293.464 478.566 293.9 479.164 294.228 479.435 294.228 480.141 294.228 484.595 298.813 484.595 299.523 484.595 299.905 484.92 300.396 485.301 300.614 486.821 301.597 490.895 310.221 490.243 311.203 490.134 311.422 490.243 311.749 490.569 311.968 491.329 312.404 491.275 324.085 490.514 324.522 490.189 324.74 490.08 325.231 490.243 325.614 490.406 326.05 490.189 327.306 489.808 328.452 488.233 333.092 487.962 334.074 488.396 334.347 488.613 334.511 488.994 335.439 489.157 336.476 489.482 338.332 490.677 339.696 492.904 340.952 494.588 341.879 499.53 341.879 501.322 340.952 502.137 340.515 503.386 339.587 504.092 338.823 505.504 337.294 508.491 329.216 508.491 326.978 508.491 326.159 508.654 325.395 508.817 325.231 509.197 324.849 509.197 312.841 508.817 311.695 508.708 311.258 508.437 309.675 508.219 308.201 508.002 306.728 507.676 305.145 507.459 304.653 506.21 302.143 505.287 299.85 504.961 298.758 504.201 296.029 499.421 289.043 495.62 285.058 493.936 283.257 493.827 283.257 491.818 283.912 490.677 284.294 489.537 284.84 489.265 285.058 488.505 285.658 479.381 285.604 478.186 285.003 477.697 284.73 476.177 284.075 474.819 283.53 470.528 281.783 463.957 274.578 463.957 271.63 463.957 271.248 463.577 270.702 463.088 270.539 462.436 270.293 461.051 270.198 459.788 270.232ZM377.984 251.434C377.115 251.434 376.3 251.544 376.137 251.762 376.029 252.035 375.431 252.199 374.834 252.199 373.042 252.199 368.208 254.764 366.416 256.674 364.515 258.694 362.397 262.897 362.397 264.644 362.397 265.244 362.18 265.954 361.854 266.117 360.659 266.882 361.419 270.757 363.755 275.997 365.167 279.108 368.751 282.438 371.358 283.093 372.281 283.311 373.259 283.639 373.531 283.857 373.856 284.13 374.834 284.403 375.703 284.567 381.623 285.495 389.661 281.728 392.593 276.652 394.331 273.65 394.603 272.449 394.657 268.301 394.657 264.589 394.44 263.497 393.245 261.205 390.258 255.583 384.23 251.707 377.984 251.434ZM484.024 247.334C481.906 247.231 479.842 247.914 476.394 249.306 473.678 250.397 469.768 254.436 468.573 257.275 468.084 258.53 467.433 260.004 467.161 260.495 466.509 261.805 466.564 267.264 467.215 268.464 467.487 268.956 468.03 269.993 468.302 270.757 469.605 273.814 472.266 277.307 473.298 277.307 473.57 277.307 474.493 277.853 475.362 278.453 476.557 279.381 478.077 279.763 481.716 280.036 484.323 280.254 486.55 280.473 486.658 280.527 486.713 280.527 487.202 280.364 487.745 280.091 488.233 279.872 489.591 279.217 490.786 278.617 491.926 278.071 494.262 276.052 496.054 274.141 499.638 270.211 500.182 268.41 499.638 262.133 499.204 256.511 496.489 252.199 491.981 250.07 488.315 248.323 486.142 247.436 484.024 247.334ZM432.993 243.185C427.759 243.192 422.437 243.411 421.541 243.847 420.835 244.175 419.26 244.721 418.065 244.993 412.96 246.303 405.302 250.397 403.184 252.908 402.804 253.454 402.152 253.836 401.826 253.836 401.446 253.836 400.197 254.818 399.056 256.019 396.992 258.148 396.938 258.257 397.644 260.004 398.079 260.932 398.513 262.733 398.622 263.934 398.785 265.135 399.111 266.336 399.382 266.663 400.034 267.318 399.98 269.501 399.328 269.938 399.056 270.102 398.785 271.303 398.785 272.558 398.785 273.814 398.296 275.942 397.698 277.252 396.232 280.418 389.118 287.46 386.728 288.115L384.936 288.551 384.773 293.136C384.664 295.702 384.827 298.267 385.153 298.868 385.424 299.468 385.805 300.996 385.968 302.306 386.185 303.616 386.511 305.09 386.782 305.581 386.999 306.073 388.249 308.693 389.552 311.422 390.801 314.096 392.376 316.989 392.974 317.863 394.874 320.428 402.206 328.07 402.749 328.07 403.021 328.07 404.107 328.834 405.139 329.707 406.117 330.635 407.311 331.345 407.692 331.345 408.126 331.345 408.561 331.672 408.723 332.109 408.886 332.546 409.864 333.037 410.842 333.255 411.819 333.474 413.123 334.019 413.72 334.402 415.349 335.548 419.585 335.329 422.192 333.965 425.179 332.436 426.483 330.199 426.483 326.596 426.483 324.085 426.266 323.43 424.636 321.629 423.604 320.483 421.323 318.845 419.585 317.972 415.838 316.061 415.838 316.061 411.711 312.241 409.918 310.603 407.963 308.365 407.42 307.328 406.823 306.291 406.171 305.035 405.899 304.599 404.324 301.706 403.618 299.413 403.184 295.32 402.641 290.462 403.184 282.001 404.107 280.254 404.379 279.709 405.085 278.126 405.628 276.816 406.986 273.541 412.036 266.991 413.231 266.936 413.557 266.936 414.209 266.499 414.752 265.954 416.87 263.552 423.822 260.932 428.004 260.932 429.253 260.932 430.285 260.714 430.285 260.386 430.285 259.731 433.923 259.676 434.303 260.332 434.466 260.55 436.259 260.932 438.322 261.15 440.332 261.369 442.721 261.86 443.536 262.296 445.654 263.443 449.076 263.334 450.814 262.133 451.628 261.587 452.66 260.986 453.149 260.768 455.159 260.059 457.331 252.853 455.81 251.926 455.539 251.762 455.267 251.161 455.267 250.616 455.267 248.705 450.597 245.485 446.849 244.83 445.654 244.611 444.351 244.12 443.916 243.793 443.373 243.383 438.227 243.179 432.993 243.185ZM433 205 433.334 205.013 433.668 205 433.668 205.026 447.91 205.574C485.195 209.152 510.018 227.876 525.619 251.819L526.907 254.005 528.36 255.958C540.76 274.404 548 296.642 548 320.579L547.73 325.95 547.995 329.386C548.101 335.908 546.555 343.726 543.75 352.411L542.895 354.694 542.83 354.949C541.71 358.568 540.417 362.111 538.963 365.568L536.625 370.445 531.951 380.637C502.367 440.573 441.582 516.259 434.353 514.984L433.334 514.409 432.315 514.984C425.086 516.259 364.301 440.573 334.717 380.637L334.2 379.51 331.88 375.671C326.569 365.845 322.634 355.158 320.336 343.872L319.842 340.616 319.704 340.088 319.604 339.051 318.594 332.396C318.201 328.511 318 324.569 318 320.579 318 292.653 327.855 267.039 344.26 247.06L345.365 245.838 347.338 243.105C363.05 223.431 386.134 208.705 418.758 205.574L430.903 205.106Z" fill="url(#fill1)" fill-rule="evenodd"/></g></svg>