<svg width="325" height="405" xmlns="http://www.w3.org/2000/svg" xmlns:xlink="http://www.w3.org/1999/xlink" overflow="hidden"><defs><filter id="fx0" x="-10%" y="-10%" width="120%" height="120%" filterUnits="userSpaceOnUse" primitiveUnits="userSpaceOnUse"><feComponentTransfer color-interpolation-filters="sRGB"><feFuncR type="discrete" tableValues="0 0"/><feFuncG type="discrete" tableValues="0 0"/><feFuncB type="discrete" tableValues="0 0"/><feFuncA type="linear" slope="0.278431" intercept="0"/></feComponentTransfer><feGaussianBlur stdDeviation="7.3559 7.33333"/></filter><clipPath id="clip1"><rect x="781" y="158" width="325" height="405"/></clipPath><clipPath id="clip2"><rect x="-7.52307" y="-7.5" width="178.046" height="220"/></clipPath><clipPath id="clip3"><rect x="0" y="0" width="163" height="203"/></clipPath></defs><g clip-path="url(#clip1)" transform="translate(-781 -158)"><g clip-path="url(#clip2)" filter="url(#fx0)" transform="matrix(1.99387 0 0 2 781 157)"><g clip-path="url(#clip3)"><path d="M84.665 77.8084C85.6178 77.8049 86.6262 77.8815 86.9461 78.0485 87.1964 78.1598 87.9198 78.4939 88.5317 78.7723 90.1452 79.5239 91.6474 81.055 92.482 82.7809 93.1218 84.1449 93.1774 84.5625 93.0662 86.6782 92.8714 90.2971 91.5918 92.2735 88.5317 93.6654 87.7528 93.9995 86.9461 94.3892 86.7235 94.5284 86.1672 94.8346 83.4688 94.8346 83.274 94.5284 83.1906 94.417 82.7177 94.2222 82.2169 94.1108 81.7162 93.9995 80.8538 93.5541 80.2696 93.1087 79.7133 92.6354 79.1291 92.2735 78.9899 92.2735 78.6284 92.2735 76.987 89.5454 76.7923 88.599 76.7088 88.1536 76.5141 87.736 76.4028 87.6525 76.069 87.4576 76.069 84.5625 76.4028 84.3676 76.542 84.2841 76.7367 83.7552 76.8201 83.1985 77.0983 81.8066 80.1584 78.7444 81.5493 78.4661 82.1056 78.3825 82.6342 78.1877 82.7177 78.0485 82.815 77.8954 83.7122 77.8119 84.665 77.8084ZM30.7804 75.7936C34.8697 75.8215 37.7907 78.0763 39.2929 82.3912 39.9605 84.2841 38.8478 88.0979 37.0952 89.9909 36.2329 90.9095 34.4246 91.9117 32.9224 92.3014 31.4759 92.6633 28.7219 92.3292 27.2474 91.5776 25.6062 90.7703 23.8814 88.933 23.2694 87.4019 22.1845 84.7295 21.9341 83.282 22.4626 82.948 22.6018 82.8644 22.7408 82.5025 22.7408 82.1963 22.7408 81.389 23.9649 78.8558 24.6604 78.2434 25.3002 77.6588 26.1069 77.1577 27.1918 76.6566 27.5813 76.4896 28.1376 76.2112 28.4158 76.072 28.694 75.9328 29.7789 75.7936 30.7804 75.7936ZM50.9467 49.7063C52.2598 49.7271 53.8976 50.5309 54.8156 51.7419 55.4276 52.5213 55.5667 53.0224 55.5667 54.2194 55.5667 56.3073 54.7878 57.3651 52.5067 58.5064 49.8917 59.7591 45.5521 63.8512 45.5521 65.0205 45.5521 65.1596 45.4408 65.271 45.3017 65.271 45.1626 65.271 44.8844 65.7442 44.6896 66.3288 44.5228 66.8856 44.2445 67.498 44.1333 67.665 43.9942 67.8321 43.7994 68.7785 43.716 69.7529 43.6326 70.7272 43.4379 71.8129 43.2709 72.1191 43.0762 72.5366 43.0762 72.8985 43.2987 73.2883 43.4656 73.5945 43.6047 74.4296 43.6047 75.1255 43.6047 77.6588 45.3573 81.2498 47.8053 83.6717 50.003 85.8709 53.0352 87.4855 55.4276 87.736 56.29 87.8195 57.0411 88.0143 57.1246 88.1257 57.3193 88.4597 59.9343 88.4319 60.1568 88.0979 60.2403 87.9587 60.7132 87.8195 61.1583 87.8195 62.1875 87.8195 64.5243 87.2628 64.8581 86.9565 65.7483 86.1493 68.7806 87.0957 69.7542 88.4876 70.8391 90.0187 71.2564 91.9952 70.5887 92.4127 70.4219 92.4962 70.3106 92.8303 70.3106 93.1087 70.3106 93.9438 68.1964 95.5305 66.6107 95.8924 65.804 96.0595 64.9138 96.31 64.6077 96.4492 64.3018 96.5883 63.801 96.7554 63.495 96.8389 62.4101 97.1173 53.1187 96.8389 52.7293 96.5327 52.5345 96.3656 51.9225 96.1429 51.394 96.0316 50.8654 95.9202 50.2534 95.7254 50.003 95.6141 47.4437 94.417 46.6648 93.9995 45.8302 93.387 45.3017 92.9973 44.5228 92.4962 44.1333 92.3013 43.716 92.1065 42.7145 91.2435 41.9078 90.4362L40.4334 88.933 40.9064 88.1257C41.1567 87.6803 41.3793 86.7338 41.3793 86.0657 41.3793 85.3698 41.4905 84.7017 41.6575 84.6181 41.9913 84.3954 42.0191 83.1706 41.6852 82.9758 41.574 82.8922 41.3793 82.1406 41.2958 81.3333 41.0454 78.9115 39.0703 76.2112 36.1772 74.3739 35.5095 73.9564 34.8697 73.6223 34.7306 73.6223 34.063 73.6223 33.8961 72.8428 34.1465 70.8385 34.4524 68.1382 34.9531 65.7442 35.287 65.438 35.4261 65.271 35.5374 64.9648 35.5374 64.7421 35.5374 64.5193 36.1216 63.1275 36.8448 61.6799 38.0132 59.3137 38.5139 58.6456 41.3515 55.7784 44.4393 52.7162 45.1904 52.1316 48.0557 50.7954 48.7512 50.4892 49.5301 50.0995 49.7805 49.9603 50.1074 49.7794 50.509 49.6993 50.9467 49.7063ZM93.7895 46.6198 95.0969 47.9838C96.0427 48.986 96.4601 49.6541 96.5991 50.4892 96.7104 51.1017 96.9051 51.6862 97.0164 51.7698 97.1555 51.8532 97.3502 52.5213 97.4337 53.2451 97.545 53.9689 97.684 54.7484 97.7397 54.9711 97.9344 55.5278 97.9344 61.3737 97.7397 61.9305 97.684 62.1532 97.545 62.7934 97.4615 63.3224 97.1276 65.2988 96.9886 65.8556 96.2097 67.6372 96.0706 67.9434 95.7367 68.7229 95.4864 69.391 95.2082 70.0312 94.9022 70.5602 94.8187 70.5602 94.7353 70.5602 94.4849 70.9778 94.2624 71.4788 93.8173 72.481 93.7616 72.5923 91.6752 74.8472L90.173 76.4617 89.1994 75.9885C88.5317 75.6266 87.3912 75.4317 85.4161 75.3482 82.6899 75.2369 82.5229 75.2648 80.6869 76.0999 77.8494 77.4361 75.457 79.9971 74.6781 82.5582 74.5668 82.8922 74.2052 82.9758 73.1759 82.948 72.4526 82.9201 71.6459 82.8366 71.4233 82.7253 71.2008 82.6417 70.1993 82.5025 69.2257 82.419 68.252 82.3355 67.3062 82.1406 67.1393 82.0014 66.9723 81.8901 66.4438 81.6952 65.9987 81.5839 65.2476 81.4168 63.8567 80.8601 62.7996 80.2755 62.577 80.1363 61.6868 79.7188 60.8522 79.3012 59.7952 78.8001 58.3486 77.5752 56.2344 75.4596 53.4804 72.7037 52.9797 72.0634 51.7 69.5302 50.921 67.9434 50.2812 66.3567 50.2812 65.9669 50.2812 64.4359 51.7834 62.348 53.0909 62.0697 53.536 61.9584 53.9533 61.7635 54.0367 61.6243 54.4818 60.9283 56.7351 61.6799 58.1539 63.0161 58.599 63.4059 59.4613 64.7142 60.0733 65.8834 60.8522 67.4145 61.7424 68.5558 63.0777 69.8085 64.7747 71.451 67.4731 73.0655 68.4189 73.0655 68.6415 73.0655 68.9753 73.2326 69.17 73.4274 69.3926 73.6501 70.6444 73.7615 73.4541 73.7337 76.6254 73.7337 77.5712 73.6501 78.2389 73.2604 78.684 73.0099 79.2403 72.7872 79.4629 72.7872 79.6854 72.7872 80.2696 72.481 80.7703 72.0912 81.2711 71.7015 81.7997 71.3953 81.9666 71.3953 82.3838 71.3953 85.7221 68.0826 86.195 67.1918 86.6123 66.4123 87.7528 64.1297 88.1979 63.1275 88.337 62.8213 88.3926 62.4038 88.2813 62.2645 88.1979 62.0975 88.2257 61.9026 88.3926 61.7913 88.9212 61.4572 88.7264 55.7784 88.1145 53.8576 87.8085 52.9111 87.5581 51.8811 87.5581 51.6027 87.5581 51.3244 87.419 51.0181 87.2799 50.9346 87.0852 50.8232 87.0852 50.6284 87.2243 50.4336 87.3634 50.2387 87.5581 49.7655 87.6415 49.3757 87.7528 48.9581 88.337 48.1787 88.949 47.6219 90.0061 46.6754 90.173 46.6198 91.9256 46.6198ZM45.1835 33.2681C45.8303 33.2855 46.4145 33.369 46.4979 33.5082 46.5813 33.6196 47.555 33.8144 48.6399 33.9258 49.7527 34.0093 50.8098 34.232 51.0323 34.399 51.2271 34.5939 51.394 34.6496 51.394 34.5661 51.394 34.3712 54.2871 35.4847 55.2886 36.0693 55.5111 36.2085 56.2344 36.5704 56.8742 36.9044 57.4862 37.2106 58.2373 37.7117 58.5156 38.0179 58.7659 38.2963 59.1275 38.5468 59.3222 38.5468 59.6839 38.5468 63.2447 42.3884 64.58 44.17 65.7206 45.729 67.2227 48.8189 67.4175 49.9881 67.6122 51.0738 67.0002 52.7162 66.0543 53.6627 65.7762 53.9411 64.8582 54.303 64.0236 54.4978 61.353 55.0546 59.4892 53.9411 58.0705 50.9346 57.3472 49.3479 54.2871 45.6176 53.3134 45.0609 52.8406 44.8103 50.0865 43.4463 48.9181 42.8895 48.0001 42.472 40.6004 42.472 40.3222 42.8895 40.2109 43.0565 39.7102 43.307 39.1816 43.4184 38.1801 43.6411 36.5389 44.4484 35.7878 45.1165 35.5652 45.3392 35.2592 45.5063 35.1201 45.5063 34.7585 45.5063 32.4774 47.8446 32.4774 48.2065 32.4774 48.4014 32.3104 48.6519 32.1157 48.7633 31.3368 49.2643 29.2504 53.6627 29.5842 54.1638 29.6398 54.2751 29.5842 54.4421 29.4173 54.5535 29.0279 54.7762 29.0557 60.7335 29.4451 60.9562 29.612 61.0675 29.6677 61.3181 29.5842 61.5129 29.5008 61.7356 29.612 62.3759 29.8068 62.9605 30.6135 65.3267 30.7526 65.8278 30.53 65.9669 30.4188 66.0505 30.224 66.5237 30.1406 67.0526 29.9737 67.9991 29.3617 68.695 28.2211 69.3353 27.3587 69.8085 24.8272 69.8085 23.9092 69.3353 23.4919 69.1126 22.8521 68.6394 22.4905 68.2496 21.7672 67.4701 20.2372 63.3502 20.2372 62.2089 20.2372 61.7913 20.1537 61.4016 20.0703 61.3181 19.8756 61.1231 19.8756 54.9989 20.0703 54.4143 20.1259 54.1916 20.265 53.3843 20.3763 52.6327 20.4875 51.881 20.6545 51.0738 20.7657 50.8232 21.4056 49.5427 21.8785 48.3735 22.0454 47.8167 22.4349 46.4249 24.8829 42.8617 26.8302 40.8295 27.6926 39.9109 27.7482 39.9109 28.7775 40.2449 29.3617 40.4398 29.9459 40.7182 30.0849 40.8295 30.4744 41.1357 35.148 41.1079 35.7599 40.8017 36.0103 40.6625 36.7892 40.3284 37.4847 40.0501 39.6824 39.1593 43.0484 35.4847 43.0484 33.9815 43.0484 33.7866 43.2432 33.5082 43.4935 33.4247 43.8273 33.2994 44.5367 33.2507 45.1835 33.2681ZM87.0852 23.6815C87.5303 23.6815 87.9475 23.7372 88.031 23.8486 88.0866 23.9878 88.3926 24.0713 88.6987 24.0713 89.6166 24.0713 92.0925 25.3797 93.0105 26.3539 93.9842 27.384 95.0691 29.5274 95.0691 30.4182 95.0691 30.7245 95.1804 31.0863 95.3473 31.1699 95.9593 31.5596 95.5699 33.5361 94.3736 36.2085 93.6504 37.7953 91.8143 39.4933 90.479 39.8274 90.0061 39.9387 89.5054 40.1057 89.3663 40.2171 89.1994 40.3563 88.6987 40.4955 88.2536 40.579 85.2213 41.0522 81.1042 39.1315 79.602 36.5425 78.7118 35.0115 78.5727 34.3991 78.5448 32.2834 78.5448 30.3904 78.6562 29.8336 79.2682 28.6645 80.7982 25.7972 83.886 23.8207 87.0852 23.6815ZM32.7694 21.5902C33.8543 21.538 34.9115 21.886 36.678 22.5959 38.0689 23.1526 40.0718 25.2126 40.6838 26.6602 40.9342 27.3004 41.268 28.052 41.4071 28.3026 41.7409 28.9707 41.7131 31.7544 41.3793 32.3669 41.2402 32.6174 40.962 33.1463 40.8229 33.5361 40.1552 35.095 38.7922 36.8766 38.2636 36.8766 38.1245 36.8766 37.6516 37.155 37.2065 37.4612 36.5945 37.9344 35.8156 38.1293 33.9518 38.2685 32.6165 38.3798 31.4759 38.4912 31.4202 38.519 31.3924 38.519 31.142 38.4355 30.8638 38.2963 30.6135 38.1849 29.918 37.8509 29.306 37.5447 28.7219 37.2663 27.5257 36.2363 26.6076 35.262 24.7716 33.2577 24.4934 32.339 24.7716 29.1377 24.9941 26.2704 26.3851 24.0713 28.694 22.9856 30.5718 22.0948 31.6845 21.6424 32.7694 21.5902ZM58.9085 19.4745C61.5895 19.478 64.3157 19.5894 64.7747 19.8121 65.1363 19.9791 65.9431 20.2575 66.5551 20.3966 69.17 21.0647 73.0924 23.1526 74.1774 24.4331 74.3721 24.7115 74.7059 24.9063 74.8728 24.9063 75.0676 24.9063 75.7074 25.4074 76.2916 26.0199 77.3487 27.1056 77.3765 27.1612 77.0149 28.052 76.7923 28.5252 76.5698 29.4439 76.5141 30.0564 76.4307 30.6688 76.2637 31.2812 76.1247 31.4482 75.7908 31.7823 75.8186 32.8958 76.1525 33.1185 76.2916 33.202 76.4307 33.8144 76.4307 34.4547 76.4307 35.0949 76.681 36.1806 76.987 36.8487 77.7382 38.4633 81.3824 42.0544 82.6064 42.3884L83.5244 42.6111 83.6079 44.9495C83.6635 46.2579 83.58 47.5662 83.4131 47.8725 83.274 48.1786 83.0793 48.9581 82.9958 49.6262 82.8846 50.2943 82.7177 51.046 82.5786 51.2965 82.4673 51.547 81.8275 52.8832 81.1598 54.2751 80.52 55.6392 79.7133 57.1146 79.4073 57.56 78.4336 58.8683 74.6781 62.7656 74.3999 62.7656 74.2608 62.7656 73.7044 63.1553 73.1759 63.6007 72.6751 64.0739 72.0632 64.4359 71.8684 64.4359 71.6459 64.4359 71.4233 64.6029 71.3399 64.8256 71.2564 65.0483 70.7557 65.2988 70.2549 65.4102 69.7542 65.5215 69.0866 65.7999 68.7806 65.9948 67.946 66.5794 65.7762 66.468 64.4409 65.7721 62.9109 64.9926 62.2432 63.8512 62.2432 62.014 62.2432 60.7335 62.3545 60.3994 63.189 59.4808 63.7176 58.8962 64.886 58.061 65.7762 57.6156 67.6957 56.6413 67.6957 56.6413 69.8098 54.6927 70.7279 53.8576 71.7293 52.7162 72.0075 52.1873 72.3135 51.6583 72.6473 51.0181 72.7865 50.7954 73.5932 49.32 73.9548 48.1508 74.1774 46.063 74.4555 43.5855 74.1774 39.2706 73.7044 38.3798 73.5653 38.1014 73.2037 37.2941 72.9255 36.626 72.23 34.9558 69.6429 31.6153 69.031 31.5874 68.864 31.5874 68.5302 31.3647 68.252 31.0863 67.1671 29.8615 63.6063 28.5252 61.4643 28.5252 60.8245 28.5252 60.2959 28.4139 60.2959 28.2469 60.2959 27.9128 58.4321 27.885 58.2373 28.2191 58.1539 28.3304 57.2359 28.5252 56.1788 28.6366 55.1495 28.7479 53.9255 28.9985 53.5082 29.2212 52.4233 29.8058 50.6707 29.7501 49.7805 29.1377 49.3632 28.8593 48.8346 28.5531 48.5843 28.4418 47.555 28.0798 46.4423 24.4053 47.2211 23.9321 47.3603 23.8486 47.4994 23.5423 47.4994 23.264 47.4994 22.2896 49.8917 20.6472 51.8112 20.3132 52.4233 20.2018 53.0909 19.9512 53.3134 19.7843 53.5916 19.5755 56.2275 19.4711 58.9085 19.4745ZM58.905 0 58.7339 0.00654848 58.5629 0 58.5629 0.0131506 51.2679 0.292642C32.1699 2.11741 19.4551 11.6666 11.4641 23.8779L10.8042 24.9926 10.0601 25.9885C3.70868 35.3962 0 46.7374 0 58.9454L0.138229 61.6846 0.00262833 63.4368C-0.0515474 66.7632 0.740276 70.7505 2.17695 75.1798L2.61492 76.3442 2.64828 76.4739C3.22195 78.3197 3.88392 80.1266 4.62907 81.8896L5.82636 84.3767 8.22081 89.5751C23.3741 120.142 54.509 158.742 58.2121 158.092L58.7339 157.799 59.2558 158.092C62.9589 158.742 94.0938 120.142 109.247 89.5751L109.512 89 110.7 87.0423C113.421 82.031 115.436 76.5807 116.613 70.8249L116.867 69.1643 116.937 68.8948 116.988 68.3658 117.506 64.9722C117.707 62.9907 117.81 60.9801 117.81 58.9454 117.81 44.7028 112.762 31.6399 104.359 21.4507L103.793 20.8274 102.783 19.4333C94.7344 9.39997 82.9107 1.88934 66.2 0.292642L59.9793 0.0542665Z" fill="#FFFFFF" fill-rule="evenodd" transform="matrix(-1.00308 0 0 1 140.586 22.45)"/></g></g><path d="M166.01 152.565C167.878 152.559 169.855 152.709 170.483 153.036 170.973 153.255 172.392 153.91 173.592 154.455 176.755 155.929 179.701 158.931 181.337 162.315 182.592 164.99 182.701 165.809 182.483 169.957 182.101 177.053 179.592 180.928 173.592 183.658 172.064 184.313 170.483 185.077 170.046 185.35 168.955 185.95 163.664 185.95 163.282 185.35 163.119 185.131 162.191 184.749 161.21 184.531 160.228 184.313 158.537 183.439 157.391 182.566 156.301 181.638 155.155 180.928 154.882 180.928 154.173 180.928 150.955 175.579 150.573 173.723 150.409 172.85 150.028 172.031 149.809 171.868 149.155 171.485 149.155 165.809 149.809 165.427 150.082 165.263 150.464 164.226 150.628 163.134 151.173 160.405 157.173 154.401 159.901 153.855 160.991 153.691 162.028 153.309 162.191 153.036 162.382 152.736 164.142 152.572 166.01 152.565ZM60.3538 148.615C68.372 148.67 74.0994 153.091 77.0449 161.551 78.354 165.263 76.1721 172.741 72.7357 176.453 71.0448 178.254 67.4993 180.219 64.5537 180.983 61.7174 181.693 56.3174 181.038 53.4263 179.564 50.2082 177.981 46.8263 174.378 45.6262 171.376 43.499 166.136 43.0081 163.298 44.0444 162.643 44.3172 162.479 44.5898 161.77 44.5898 161.169 44.5898 159.586 46.9899 154.619 48.3536 153.418 49.6082 152.272 51.19 151.29 53.3173 150.307 54.0809 149.98 55.1718 149.434 55.7173 149.161 56.2628 148.888 58.3901 148.615 60.3538 148.615ZM99.8954 97.4633C102.47 97.5042 105.682 99.0803 107.482 101.455 108.682 102.983 108.954 103.966 108.954 106.313 108.954 110.406 107.427 112.481 102.954 114.719 97.8269 117.175 89.3178 125.199 89.3178 127.491 89.3178 127.764 89.0995 127.982 88.8268 127.982 88.5541 127.982 88.0086 128.91 87.6267 130.057 87.2996 131.148 86.754 132.349 86.5359 132.677 86.2632 133.004 85.8813 134.86 85.7177 136.77 85.5541 138.681 85.1723 140.81 84.845 141.41 84.4631 142.229 84.4631 142.938 84.8995 143.702 85.2268 144.303 85.4995 145.94 85.4995 147.305 85.4995 152.272 88.9359 159.313 93.736 164.062 98.0452 168.374 103.991 171.54 108.682 172.031 110.373 172.195 111.845 172.577 112.009 172.796 112.391 173.45 117.518 173.396 117.955 172.741 118.118 172.468 119.045 172.195 119.918 172.195 121.936 172.195 126.518 171.103 127.173 170.503 128.918 168.92 134.864 170.776 136.773 173.505 138.9 176.507 139.718 180.383 138.409 181.201 138.082 181.365 137.864 182.02 137.864 182.566 137.864 184.203 133.718 187.315 130.609 188.024 129.027 188.352 127.282 188.843 126.682 189.116 126.082 189.389 125.1 189.716 124.5 189.88 122.373 190.426 104.154 189.88 103.391 189.28 103.009 188.952 101.809 188.516 100.772 188.297 99.7361 188.079 98.536 187.697 98.0452 187.479 93.0269 185.131 91.4996 184.313 89.8632 183.112 88.8268 182.348 87.2996 181.365 86.5359 180.983 85.7177 180.601 83.754 178.909 82.1722 177.326L79.2812 174.378 80.2085 172.796C80.6995 171.922 81.1359 170.066 81.1359 168.756 81.1359 167.392 81.354 166.082 81.6813 165.918 82.3358 165.481 82.3904 163.08 81.7358 162.698 81.5177 162.534 81.1359 161.06 80.9721 159.477 80.4813 154.728 76.6085 149.434 70.9357 145.831 69.6266 145.012 68.372 144.357 68.0993 144.357 66.7902 144.357 66.4629 142.829 66.9538 138.899 67.5538 133.604 68.5356 128.91 69.1902 128.31 69.4629 127.982 69.6811 127.382 69.6811 126.945 69.6811 126.509 70.8266 123.779 72.2448 120.941 74.5357 116.301 75.5175 114.991 81.0813 109.369 87.1359 103.365 88.6087 102.219 94.2269 99.5988 95.5905 98.9984 97.1179 98.2343 97.6088 97.9614 98.2498 97.6066 99.0372 97.4496 99.8954 97.4633ZM183.901 91.4113 186.465 94.086C188.319 96.0509 189.137 97.3609 189.41 98.9985 189.628 100.199 190.01 101.345 190.228 101.509 190.501 101.673 190.883 102.983 191.046 104.402 191.265 105.821 191.537 107.35 191.646 107.786 192.028 108.878 192.028 120.341 191.646 121.432 191.537 121.869 191.265 123.124 191.101 124.162 190.446 128.037 190.174 129.129 188.646 132.622 188.374 133.222 187.719 134.751 187.228 136.061 186.683 137.316 186.083 138.353 185.919 138.353 185.755 138.353 185.265 139.172 184.828 140.155 183.955 142.12 183.846 142.338 179.755 146.759L176.81 149.925 174.901 148.997C173.592 148.287 171.355 147.905 167.483 147.742 162.137 147.523 161.81 147.578 158.21 149.215 152.646 151.835 147.955 156.857 146.428 161.879 146.21 162.534 145.5 162.698 143.482 162.643 142.064 162.588 140.482 162.425 140.046 162.206 139.609 162.042 137.646 161.77 135.737 161.606 133.827 161.442 131.973 161.06 131.646 160.787 131.318 160.569 130.282 160.187 129.409 159.968 127.936 159.641 125.209 158.549 123.136 157.403 122.7 157.13 120.955 156.311 119.318 155.493 117.245 154.51 114.409 152.108 110.263 147.96 104.863 142.556 103.882 141.301 101.373 136.334 99.8452 133.222 98.5906 130.111 98.5906 129.347 98.5906 126.345 101.536 122.251 104.1 121.705 104.973 121.487 105.791 121.105 105.954 120.832 106.827 119.467 111.245 120.941 114.027 123.561 114.9 124.325 116.591 126.891 117.791 129.183 119.318 132.185 121.064 134.423 123.682 136.879 127.009 140.1 132.3 143.266 134.155 143.266 134.591 143.266 135.246 143.593 135.628 143.975 136.064 144.412 138.518 144.63 144.028 144.576 150.246 144.576 152.1 144.412 153.41 143.648 154.282 143.157 155.373 142.72 155.81 142.72 156.246 142.72 157.391 142.12 158.373 141.355 159.355 140.591 160.392 139.991 160.719 139.991 161.537 139.991 168.082 133.495 169.01 131.749 169.828 130.22 172.064 125.744 172.937 123.779 173.21 123.179 173.319 122.36 173.101 122.087 172.937 121.76 172.992 121.378 173.319 121.159 174.355 120.504 173.973 109.369 172.773 105.603 172.173 103.747 171.682 101.728 171.682 101.182 171.682 100.636 171.41 100.035 171.137 99.8718 170.755 99.6534 170.755 99.2714 171.028 98.8893 171.301 98.5072 171.682 97.5793 171.846 96.8151 172.064 95.9963 173.21 94.468 174.41 93.3763 176.483 91.5204 176.81 91.4113 180.246 91.4113ZM88.5951 65.2316C89.8633 65.2657 91.0088 65.4295 91.1724 65.7024 91.336 65.9208 93.2451 66.3028 95.3724 66.5212 97.5542 66.6848 99.627 67.1215 100.063 67.449 100.445 67.8312 100.772 67.9403 100.772 67.7766 100.772 67.3945 106.445 69.5779 108.409 70.724 108.845 70.997 110.264 71.7066 111.518 72.3616 112.718 72.962 114.191 73.9446 114.736 74.5449 115.227 75.0907 115.936 75.582 116.318 75.582 117.027 75.582 124.009 83.1146 126.627 86.6079 128.864 89.6646 131.809 95.7234 132.191 98.0159 132.573 100.145 131.373 103.365 129.518 105.221 128.973 105.767 127.173 106.476 125.536 106.858 120.3 107.95 116.645 105.767 113.864 99.8717 112.445 96.7605 106.445 89.4462 104.536 88.3546 103.609 87.8633 98.2088 85.1888 95.9179 84.0971 94.1178 83.2783 79.6086 83.2783 79.0631 84.0971 78.8449 84.4246 77.8631 84.9158 76.8267 85.1342 74.863 85.5708 71.6449 87.1537 70.1721 88.4638 69.7357 88.9004 69.1357 89.228 68.863 89.228 68.1539 89.228 63.6811 93.813 63.6811 94.5225 63.6811 94.9047 63.3538 95.3959 62.972 95.6143 61.4447 96.5967 57.3538 105.221 58.0083 106.203 58.1173 106.422 58.0083 106.749 57.681 106.968 56.9174 107.404 56.9719 119.085 57.7356 119.522 58.0628 119.74 58.1719 120.231 58.0083 120.614 57.8446 121.05 58.0628 122.306 58.4446 123.452 60.0265 128.092 60.2992 129.074 59.8628 129.347 59.6447 129.511 59.2628 130.439 59.0993 131.476 58.772 133.332 57.5719 134.696 55.3355 135.952 53.6446 136.879 48.6808 136.879 46.8809 135.952 46.0626 135.515 44.8081 134.587 44.099 133.823 42.6808 132.294 39.6808 124.216 39.6808 121.978 39.6808 121.159 39.5171 120.395 39.3535 120.231 38.9717 119.849 38.9717 107.841 39.3535 106.695 39.4625 106.258 39.7353 104.675 39.9535 103.201 40.1716 101.728 40.4989 100.145 40.7171 99.6534 41.9717 97.1425 42.8989 94.8501 43.2262 93.7583 43.9899 91.0292 48.79 84.0425 52.6082 80.0579 54.2992 78.2566 54.4082 78.2566 56.4264 78.9116 57.5719 79.2938 58.7174 79.8396 58.9901 80.0579 59.7538 80.6583 68.9176 80.6038 70.1175 80.0033 70.6085 79.7305 72.1357 79.0754 73.4994 78.5296 77.8085 76.7829 84.4086 69.5779 84.4086 66.6303 84.4086 66.2482 84.7905 65.7024 85.2813 65.5387 85.936 65.293 87.3269 65.1975 88.5951 65.2316ZM170.755 46.4343C171.628 46.4343 172.446 46.5436 172.61 46.7619 172.719 47.0349 173.319 47.1985 173.919 47.1985 175.719 47.1985 180.574 49.764 182.374 51.6744 184.283 53.6941 186.41 57.8969 186.41 59.6436 186.41 60.244 186.628 60.9536 186.955 61.1174 188.155 61.8816 187.392 65.757 185.046 70.997 183.628 74.1084 180.028 77.4379 177.41 78.0929 176.483 78.3112 175.501 78.6387 175.228 78.8571 174.901 79.13 173.919 79.4029 173.046 79.5667 167.101 80.4945 159.028 76.7284 156.082 71.652 154.337 68.6499 154.064 67.4492 154.009 63.3007 154.009 59.5891 154.228 58.4973 155.428 56.2049 158.428 50.5828 164.482 46.7073 170.755 46.4343ZM64.2538 42.3338C66.3811 42.2314 68.4539 42.9137 71.9176 44.3056 74.6449 45.3972 78.5722 49.4364 79.7722 52.2748 80.2631 53.5302 80.9176 55.004 81.1905 55.4953 81.845 56.8053 81.7904 62.2636 81.1359 63.4645 80.8631 63.9557 80.3177 64.9928 80.0449 65.757 78.7358 68.8137 76.0631 72.307 75.0267 72.307 74.7539 72.307 73.8266 72.8529 72.9539 73.4533 71.7539 74.3811 70.2266 74.7633 66.5721 75.0362 63.9538 75.2545 61.7174 75.4729 61.6083 75.5274 61.5537 75.5274 61.0628 75.3637 60.5173 75.0907 60.0265 74.8724 58.6628 74.2174 57.4627 73.6171 56.3174 73.0712 53.9719 71.0516 52.1718 69.1412 48.5718 65.2112 48.0263 63.4099 48.5718 57.1328 49.0081 51.5106 51.7354 47.1985 56.2628 45.0698 59.9447 43.3231 62.1265 42.4361 64.2538 42.3338ZM115.507 38.1854C120.764 38.1922 126.109 38.4106 127.009 38.8472 127.718 39.1747 129.3 39.7205 130.5 39.9934 135.628 41.3034 143.318 45.3972 145.446 47.9081 145.828 48.4539 146.482 48.836 146.809 48.836 147.191 48.836 148.446 49.8185 149.591 51.0193 151.664 53.1482 151.719 53.2573 151.01 55.004 150.573 55.9318 150.137 57.7331 150.028 58.934 149.864 60.1349 149.537 61.3357 149.264 61.6632 148.609 62.3181 148.664 64.5015 149.319 64.9382 149.591 65.1019 149.864 66.3028 149.864 67.5582 149.864 68.8136 150.355 70.9424 150.955 72.2524 152.428 75.4183 159.573 82.4595 161.973 83.1146L163.773 83.5512 163.937 88.1362C164.046 90.7017 163.882 93.2671 163.555 93.8676 163.282 94.4679 162.901 95.9963 162.737 97.3063 162.519 98.6163 162.191 100.09 161.919 100.581 161.701 101.073 160.446 103.693 159.137 106.422 157.882 109.096 156.301 111.989 155.701 112.863 153.791 115.428 146.428 123.07 145.882 123.07 145.609 123.07 144.518 123.834 143.482 124.707 142.5 125.635 141.3 126.345 140.918 126.345 140.482 126.345 140.046 126.672 139.882 127.109 139.718 127.546 138.737 128.037 137.755 128.255 136.773 128.474 135.464 129.019 134.864 129.402 133.228 130.548 128.973 130.329 126.355 128.965 123.355 127.436 122.046 125.199 122.046 121.596 122.046 119.085 122.264 118.43 123.9 116.629 124.936 115.483 127.227 113.845 128.973 112.972 132.737 111.061 132.737 111.061 136.882 107.241 138.682 105.603 140.646 103.365 141.191 102.328 141.791 101.291 142.446 100.035 142.719 99.5988 144.3 96.7059 145.009 94.4134 145.446 90.3196 145.991 85.4617 145.446 77.0012 144.518 75.2545 144.246 74.7087 143.537 73.1258 142.991 71.8158 141.628 68.5408 136.555 61.9907 135.355 61.9361 135.027 61.9361 134.373 61.4994 133.827 60.9536 131.7 58.5519 124.718 55.9318 120.518 55.9318 119.264 55.9318 118.227 55.7136 118.227 55.386 118.227 54.7311 114.573 54.6765 114.191 55.3315 114.027 55.5498 112.227 55.9318 110.154 56.1502 108.136 56.3685 105.736 56.8598 104.918 57.2965 102.791 58.4427 99.3543 58.3336 97.6088 57.1327 96.7907 56.5869 95.7542 55.9865 95.2633 55.7682 93.2451 55.0585 91.0632 47.8535 92.5905 46.9256 92.8633 46.7619 93.136 46.1614 93.136 45.6156 93.136 43.7052 97.8269 40.4847 101.591 39.8298 102.791 39.6114 104.1 39.1201 104.536 38.7926 105.082 38.3832 110.25 38.1785 115.507 38.1854ZM115.5 0 115.165 0.0128402 114.829 0 114.829 0.0257856 100.525 0.573808C63.0782 4.15179 38.1473 22.8756 22.4785 46.8194L21.1848 49.0051 19.7257 50.9578C7.27191 69.4043 0 91.642 0 115.579L0.271036 120.95 0.00515358 124.386C-0.101073 130.908 1.45152 138.726 4.26853 147.411L5.12729 149.694 5.19271 149.949C6.31755 153.568 7.61552 157.111 9.07661 160.568L11.4242 165.445 16.1192 175.637C45.8316 235.573 106.88 311.259 114.141 309.984L115.165 309.409 116.188 309.984C123.449 311.259 184.498 235.573 214.21 175.637L214.729 174.51 217.06 170.671C222.394 160.845 226.346 150.158 228.653 138.872L229.15 135.616 229.289 135.088 229.389 134.051 230.404 127.396C230.798 123.511 231 119.569 231 115.579 231 87.6525 221.102 62.039 204.625 42.0602L203.516 40.8381 201.534 38.1045C185.754 18.4313 162.57 3.7046 129.804 0.573808L117.606 0.106405Z" fill="#FFFFFF" fill-rule="evenodd" transform="matrix(-1 0 0 1 1059 205)"/></g></svg>