<svg width="73" height="95" xmlns="http://www.w3.org/2000/svg" xmlns:xlink="http://www.w3.org/1999/xlink" overflow="hidden"><defs><clipPath id="clip0"><rect x="604" y="100" width="73" height="95"/></clipPath></defs><g clip-path="url(#clip0)" transform="translate(-604 -100)"><rect x="0" y="0" width="23.6866" height="42.8487" fill="#FF5050" transform="matrix(0.925594 0.378518 0.378518 -0.925594 637.928 140.576)"/><path d="M643.138 140.576 621.214 149.542 604.995 109.882 626.919 100.916Z" fill="#FF5050" fill-rule="evenodd"/><path d="M612 166C612 150.536 624.76 138 640.5 138 656.24 138 669 150.536 669 166 669 181.464 656.24 194 640.5 194 624.76 194 612 181.464 612 166Z" fill="#FFAD09" fill-rule="evenodd"/><path d="M618 166C618 153.85 627.85 144 640 144 652.15 144 662 153.85 662 166 662 178.15 652.15 188 640 188 627.85 188 618 178.15 618 166Z" fill="#FFED09" fill-rule="evenodd"/><path d="M625 161.459 636.233 161.132 640 150 643.767 161.132 655 161.459 646.094 168.666 649.271 180 640 173.321 630.729 180 633.906 168.666Z" fill="#FFAD09" fill-rule="evenodd"/></g></svg>