<svg width="728" height="451" xmlns="http://www.w3.org/2000/svg" xmlns:xlink="http://www.w3.org/1999/xlink" overflow="hidden"><defs><clipPath id="clip0"><rect x="276" y="105" width="728" height="451"/></clipPath></defs><g clip-path="url(#clip0)" transform="translate(-276 -105)"><path d="M519 227C519 160.174 573.174 106 640 106L640 106C706.827 106 761 160.174 761 227L761 434C761 500.827 706.826 555 640 555L640 555C573.174 555 519 500.826 519 434Z" fill="#FFDC09" fill-rule="evenodd"/><path d="M593 436C593 439.866 589.866 443 586 443L376 443C372.134 443 369 439.866 369 436L369 436C369 432.134 372.134 429 376 429L586 429C589.866 429 593 432.134 593 436Z" fill="#953737" fill-rule="evenodd"/><path d="M593 319C593 322.866 589.866 326 586 326L376 326C372.134 326 369 322.866 369 319L369 319C369 315.134 372.134 312 376 312L586 312C589.866 312 593 315.134 593 319Z" fill="#953737" fill-rule="evenodd"/><path d="M593 202C593 205.866 589.866 209 586 209L376 209C372.134 209 369 205.866 369 202L369 202C369 198.134 372.134 195 376 195L586 195C589.866 195 593 198.134 593 202Z" fill="#953737" fill-rule="evenodd"/><path d="M415 436C415 455.882 398.882 472 379 472L313 472C293.118 472 277 455.882 277 436L277 436C277 416.118 293.118 400 313 400L379 400C398.882 400 415 416.118 415 436Z" fill="#FFDC09" fill-rule="evenodd"/><path d="M415 321.5C415 341.658 398.658 358 378.5 358L313.5 358C293.342 358 277 341.658 277 321.5L277 321.5C277 301.342 293.342 285 313.5 285L378.5 285C398.658 285 415 301.342 415 321.5Z" fill="#FFDC09" fill-rule="evenodd"/><path d="M415 204.5C415 224.658 398.658 241 378.5 241L313.5 241C293.342 241 277 224.658 277 204.5L277 204.5C277 184.342 293.342 168 313.5 168L378.5 168C398.658 168 415 184.342 415 204.5Z" fill="#FFDC09" fill-rule="evenodd"/><path d="M687 204.5C687 200.91 689.91 198 693.5 198L904.5 198C908.09 198 911 200.91 911 204.5L911 204.5C911 208.09 908.09 211 904.5 211L693.5 211C689.91 211 687 208.09 687 204.5Z" fill="#953737" fill-rule="evenodd"/><path d="M687 322C687 318.134 690.134 315 694 315L904 315C907.866 315 911 318.134 911 322L911 322C911 325.866 907.866 329 904 329L694 329C690.134 329 687 325.866 687 322Z" fill="#953737" fill-rule="evenodd"/><path d="M687 439C687 435.134 690.134 432 694 432L904 432C907.866 432 911 435.134 911 439L911 439C911 442.866 907.866 446 904 446L694 446C690.134 446 687 442.866 687 439Z" fill="#953737" fill-rule="evenodd"/><path d="M865 204.5C865 184.342 881.342 168 901.5 168L966.5 168C986.658 168 1003 184.342 1003 204.5L1003 204.5C1003 224.658 986.658 241 966.5 241L901.5 241C881.342 241 865 224.658 865 204.5Z" fill="#FFDC09" fill-rule="evenodd"/><path d="M865 319C865 299.118 881.118 283 901 283L967 283C986.882 283 1003 299.118 1003 319L1003 319C1003 338.882 986.882 355 967 355L901 355C881.118 355 865 338.882 865 319Z" fill="#FFDC09" fill-rule="evenodd"/><path d="M865 436C865 416.118 881.118 400 901 400L967 400C986.882 400 1003 416.118 1003 436L1003 436C1003 455.882 986.882 472 967 472L901 472C881.118 472 865 455.882 865 436Z" fill="#FFDC09" fill-rule="evenodd"/><path d="M565 204C565 184.118 581.118 168 601 168L679 168C698.882 168 715 184.118 715 204L715 204C715 223.882 698.882 240 679 240L601 240C581.118 240 565 223.882 565 204Z" fill-rule="evenodd"/><path d="M565 321C565 301.118 581.118 285 601 285L679 285C698.882 285 715 301.118 715 321L715 321C715 340.882 698.882 357 679 357L601 357C581.118 357 565 340.882 565 321Z" fill-rule="evenodd"/><path d="M565 436C565 416.118 581.118 400 601 400L679 400C698.882 400 715 416.118 715 436L715 436C715 455.882 698.882 472 679 472L601 472C581.118 472 565 455.882 565 436Z" fill-rule="evenodd"/></g></svg>