<svg width="646" height="590" xmlns="http://www.w3.org/2000/svg" xmlns:xlink="http://www.w3.org/1999/xlink" overflow="hidden"><defs><filter id="fx0" x="-10%" y="-10%" width="120%" height="120%" filterUnits="userSpaceOnUse" primitiveUnits="userSpaceOnUse"><feComponentTransfer color-interpolation-filters="sRGB"><feFuncR type="discrete" tableValues="0 0"/><feFuncG type="discrete" tableValues="0 0"/><feFuncB type="discrete" tableValues="0 0"/><feFuncA type="linear" slope="0.509804" intercept="0"/></feComponentTransfer><feGaussianBlur stdDeviation="7.90108 7.88889"/></filter><clipPath id="clip1"><rect x="170" y="-164" width="646" height="590"/></clipPath><clipPath id="clip2"><rect x="-7.51159" y="-7.5" width="177.023" height="161"/></clipPath><clipPath id="clip3"><rect x="0" y="0" width="162" height="148"/></clipPath></defs><g clip-path="url(#clip1)" transform="translate(-170 164)"><g clip-path="url(#clip2)" filter="url(#fx0)" transform="matrix(3.99383 0 0 4 169 -165)"><g clip-path="url(#clip3)" transform="translate(-7.10543e-15 0)"><path d="M67.8568 96.9905C63.1447 93.4778 35.8037 110.266 29.0202 100.71 22.2367 91.1533 22.8581 52.3592 27.156 39.6517 31.4539 26.9442 47.61 22.5017 54.8077 24.4647 62.0055 26.4277 62.0572 46.4187 70.3424 51.4294 78.6275 56.4401 93.2301 50.138 104.519 54.5288 115.807 58.9196 138.54 67.3396 138.074 77.7742 137.608 88.2089 111.25 108.871 101.722 117.137 92.1945 125.402 62.9375 125.143 57.2933 121.786 51.649 118.428 72.569 100.503 67.8568 96.9905Z" fill="#7C6A70" fill-rule="evenodd"/></g></g><path d="M441.038 221.159C422.587 207.384 315.533 273.22 288.972 235.744 262.411 198.268 264.844 46.1341 281.673-3.6993 298.502-53.5327 361.761-70.954 389.944-63.2561 418.127-55.5582 418.329 22.8382 450.77 42.4879 483.211 62.1377 540.387 37.4235 584.588 54.6423 628.788 71.8612 717.797 104.881 715.972 145.801 714.148 186.721 610.946 267.751 573.639 300.163 536.332 332.575 421.776 331.562 399.676 318.395 377.576 305.227 459.488 234.934 441.038 221.159Z" fill="#7C6A70" fill-rule="evenodd"/></g></svg>