<svg width="638" height="604" xmlns="http://www.w3.org/2000/svg" xmlns:xlink="http://www.w3.org/1999/xlink" overflow="hidden"><defs><filter id="fx0" x="-10%" y="-10%" width="120%" height="120%" filterUnits="userSpaceOnUse" primitiveUnits="userSpaceOnUse"><feComponentTransfer color-interpolation-filters="sRGB"><feFuncR type="discrete" tableValues="0 0"/><feFuncG type="discrete" tableValues="0 0"/><feFuncB type="discrete" tableValues="0 0"/><feFuncA type="linear" slope="0.509804" intercept="0"/></feComponentTransfer><feGaussianBlur stdDeviation="7.90123 7.87585"/></filter><clipPath id="clip1"><rect x="254" y="-184" width="638" height="604"/></clipPath><clipPath id="clip2"><rect x="-7.51174" y="-7.4876" width="173.02" height="164.977"/></clipPath><clipPath id="clip3"><rect x="0" y="0" width="160" height="151"/></clipPath></defs><g clip-path="url(#clip1)" transform="translate(-254 184)"><g clip-path="url(#clip2)" filter="url(#fx0)" transform="matrix(3.99375 0 0 4.00662 254 -184)"><g clip-path="url(#clip3)" transform="translate(7.10543e-15 0)"><path d="M135.404 93.0956C130.367 98.8311 90.9041 90.4849 76.3258 96.0973 61.7474 101.71 56.6599 124.624 47.9335 126.77 39.2072 128.916 23.2338 115.47 23.9675 108.975 24.7012 102.481 48.249 96.1467 52.3358 87.8056 56.4225 79.4644 45.7909 69.5265 48.4881 58.9285 51.1852 48.3305 56.1192 27.1215 68.5185 24.2176 80.9178 21.3136 111.053 36.3279 122.884 41.505 134.715 46.6821 104.462 53.0859 106.548 61.6844 108.635 70.2828 140.441 87.3602 135.404 93.0956Z" fill="#7C6A70" fill-rule="evenodd"/></g></g><path d="M790.425 187.611C770.703 210.14 616.19 177.355 559.109 199.401 502.029 221.447 482.109 311.455 447.941 319.886 413.774 328.317 351.231 275.497 354.104 249.988 356.977 224.478 449.176 199.596 465.178 166.831 481.179 134.066 439.552 95.0297 450.112 53.4001 460.673 11.7705 479.992-71.5398 528.54-82.9466 577.089-94.3533 695.081-35.3764 741.405-15.0405 787.729 5.29553 669.273 30.4502 677.443 64.2254 685.614 98.0007 810.148 165.081 790.425 187.611Z" fill="#7C6A70" fill-rule="evenodd"/></g></svg>