<svg width="651" height="595" xmlns="http://www.w3.org/2000/svg" xmlns:xlink="http://www.w3.org/1999/xlink" overflow="hidden"><defs><filter id="fx0" x="-10%" y="-10%" width="120%" height="120%" filterUnits="userSpaceOnUse" primitiveUnits="userSpaceOnUse"><feComponentTransfer color-interpolation-filters="sRGB"><feFuncR type="discrete" tableValues="0 0"/><feFuncG type="discrete" tableValues="0 0"/><feFuncB type="discrete" tableValues="0 0"/><feFuncA type="linear" slope="0.509804" intercept="0"/></feComponentTransfer><feGaussianBlur stdDeviation="7.87681 7.87567"/></filter><clipPath id="clip1"><rect x="165" y="-155" width="651" height="595"/></clipPath><clipPath id="clip2"><rect x="-7.48852" y="-7.48744" width="176.979" height="164.973"/></clipPath><clipPath id="clip3"><rect x="0" y="0" width="163" height="149"/></clipPath></defs><g clip-path="url(#clip1)" transform="translate(-165 155)"><g clip-path="url(#clip2)" filter="url(#fx0)" transform="matrix(4.00613 0 0 4.00671 164 -156)"><g clip-path="url(#clip3)"><path d="M33.3582 87.786C23.9719 77.7694 22.3731 70.5925 25.6222 64.8614 28.8713 59.1302 45.3233 60.2145 52.8531 53.3991 60.3828 46.5836 62.0331 24.1754 70.8006 23.9689 79.5681 23.7623 94.1119 43.589 105.458 52.1599 116.804 60.7308 139.961 68.1142 138.878 75.3943 137.795 82.6744 108.449 87.5795 98.9598 95.8406 89.4703 104.102 92.9257 126.458 81.9405 124.961 70.9554 123.464 42.7446 97.8026 33.3582 87.786Z" fill="#7C6A70" fill-rule="evenodd"/></g></g><path d="M301.419 194.689C264.553 155.343 258.274 127.151 271.035 104.638 283.796 82.1253 348.413 86.3844 377.987 59.6124 407.56 32.8404 414.042-55.1826 448.477-55.9938 482.912-56.805 540.034 21.077 584.597 54.7449 629.16 88.4127 720.11 117.416 715.856 146.013 711.602 174.61 596.346 193.878 559.075 226.329 521.804 258.78 535.375 346.6 492.23 340.718 449.085 334.837 338.285 234.036 301.419 194.689Z" fill="#7C6A70" fill-rule="evenodd"/></g></svg>