<svg width="591" height="646" xmlns="http://www.w3.org/2000/svg" xmlns:xlink="http://www.w3.org/1999/xlink" overflow="hidden"><defs><filter id="fx0" x="-10%" y="-10%" width="120%" height="120%" filterUnits="userSpaceOnUse" primitiveUnits="userSpaceOnUse"><feComponentTransfer color-interpolation-filters="sRGB"><feFuncR type="discrete" tableValues="0 0"/><feFuncG type="discrete" tableValues="0 0"/><feFuncB type="discrete" tableValues="0 0"/><feFuncA type="linear" slope="0.509804" intercept="0"/></feComponentTransfer><feGaussianBlur stdDeviation="7.90224 7.91331"/></filter><clipPath id="clip1"><rect x="197" y="-192" width="591" height="646"/></clipPath><clipPath id="clip2"><rect x="-7.51269" y="-7.52322" width="161.022" height="177.046"/></clipPath><clipPath id="clip3"><rect x="0" y="0" width="148" height="162"/></clipPath></defs><g clip-path="url(#clip1)" transform="translate(-197 192)"><g clip-path="url(#clip2)" filter="url(#fx0)" transform="matrix(3.99324 0 0 3.98765 197 -192)"><g clip-path="url(#clip3)" transform="translate(-7.10543e-15 7.10543e-15)"><path d="M51.0294 67.8659C54.539 63.157 37.7651 35.8349 47.3133 29.0562 56.8615 22.2774 95.6221 22.8984 108.319 27.1933 121.015 31.4882 125.454 47.6331 123.493 54.8258 121.531 62.0186 101.557 62.0703 96.5511 70.3497 91.5447 78.6292 97.8414 93.2216 93.4544 104.502 89.0674 115.783 80.6546 138.5 70.229 138.034 59.8034 137.568 39.1586 111.229 30.9007 101.708 22.6428 92.1867 22.9009 62.95 26.2556 57.3097 29.6104 51.6693 47.5198 72.5748 51.0294 67.8659Z" fill="#7C6A70" fill-rule="evenodd"/></g></g><path d="M402.571 79.6528C416.311 61.2435 350.642-45.5712 388.023-72.0726 425.404-98.574 577.149-96.1463 626.856-79.3554 676.562-62.5645 693.939 0.553238 686.261 28.673 678.582 56.7928 600.386 56.9951 580.786 89.3632 561.187 121.731 585.838 178.78 568.663 222.882 551.488 266.983 518.553 355.793 477.737 353.972 436.921 352.152 356.098 249.181 323.769 211.957 291.439 174.734 292.45 60.4342 305.584 38.3835 318.717 16.3328 388.831 98.0621 402.571 79.6528Z" fill="#7C6A70" fill-rule="evenodd"/></g></svg>