<svg width="1105" height="137" xmlns="http://www.w3.org/2000/svg" xmlns:xlink="http://www.w3.org/1999/xlink" overflow="hidden"><defs><clipPath id="clip0"><rect x="274" y="506" width="1105" height="137"/></clipPath></defs><g clip-path="url(#clip0)" transform="translate(-274 -506)"><path d="M321 621.5C321 610.178 330.178 601 341.5 601 352.822 601 362 610.178 362 621.5 362 632.822 352.822 642 341.5 642 330.178 642 321 632.822 321 621.5Z" fill="#843C0C" fill-rule="evenodd"/><path d="M552 621.5C552 610.178 561.178 601 572.5 601 583.822 601 593 610.178 593 621.5 593 632.822 583.822 642 572.5 642 561.178 642 552 632.822 552 621.5Z" fill="#843C0C" fill-rule="evenodd"/><path d="M684 621.5C684 610.178 693.178 601 704.5 601 715.822 601 725 610.178 725 621.5 725 632.822 715.822 642 704.5 642 693.178 642 684 632.822 684 621.5Z" fill="#843C0C" fill-rule="evenodd"/><path d="M915 621.5C915 610.178 924.178 601 935.5 601 946.822 601 956 610.178 956 621.5 956 632.822 946.822 642 935.5 642 924.178 642 915 632.822 915 621.5Z" fill="#843C0C" fill-rule="evenodd"/><path d="M1067 621.5C1067 610.178 1076.18 601 1087.5 601 1098.82 601 1108 610.178 1108 621.5 1108 632.822 1098.82 642 1087.5 642 1076.18 642 1067 632.822 1067 621.5Z" fill="#843C0C" fill-rule="evenodd"/><path d="M1298 621.5C1298 610.178 1307.18 601 1318.5 601 1329.82 601 1339 610.178 1339 621.5 1339 632.822 1329.82 642 1318.5 642 1307.18 642 1298 632.822 1298 621.5Z" fill="#843C0C" fill-rule="evenodd"/><path d="M21.1839 0 309 0 359 50.0002 359 100 0 100 0 21.1839C-5.71319e-15 9.48438 9.48436-5.7132e-15 21.1839-5.7132e-15Z" fill="#F8E4BC" fill-rule="evenodd" transform="matrix(-1 0 0 1 633 522)"/><path d="M353.63 522 489 522 487.84 524.4C473.399 551.325 450.705 582.838 449.37 591.149 447.232 604.447 487.126 553.915 485.701 566.681 484.989 573.064 479.691 594.03 471.609 615.551L468.972 622 360.334 622 369.827 604.513C384.987 577.319 400.838 550.635 400.215 542.213 398.968 525.369 338.059 579.092 336.1 568.809 335.12 563.667 341.443 545.005 351.394 525.923Z" fill="#FE6519" fill-rule="evenodd"/><path d="M495 550C495 543.373 500.373 538 507 538L507 538C513.627 538 519 543.373 519 550L519 563C519 569.627 513.627 575 507 575L507 575C500.373 575 495 569.627 495 563Z" stroke="#33C0FF" stroke-width="2" stroke-miterlimit="8" fill="#97EEFF" fill-rule="evenodd"/><path d="M528 550C528 543.373 533.373 538 540 538L540 538C546.627 538 552 543.373 552 550L552 563C552 569.627 546.627 575 540 575L540 575C533.373 575 528 569.627 528 563Z" stroke="#33C0FF" stroke-width="2" stroke-miterlimit="8" fill="#97EEFF" fill-rule="evenodd"/><path d="M593 550.5C593 543.596 598.596 538 605.5 538L605.5 538C612.404 538 618 543.596 618 550.5L618 562.5C618 569.404 612.404 575 605.5 575L605.5 575C598.596 575 593 569.404 593 562.5Z" stroke="#33C0FF" stroke-width="2" stroke-miterlimit="8" fill="#97EEFF" fill-rule="evenodd"/><path d="M560 550.5C560 543.596 565.596 538 572.5 538L572.5 538C579.404 538 585 543.596 585 550.5L585 562.5C585 569.404 579.404 575 572.5 575L572.5 575C565.596 575 560 569.404 560 562.5Z" stroke="#33C0FF" stroke-width="2" stroke-miterlimit="8" fill="#97EEFF" fill-rule="evenodd"/><path d="M18.5 0 63.5 0 82 18.5 82 37 0 37 0 18.5C-5.21985e-15 8.28275 8.28275-5.21985e-15 18.5-5.21985e-15Z" stroke="#33C0FF" stroke-width="2" stroke-miterlimit="8" fill="#97EEFF" fill-rule="evenodd" transform="matrix(-1 0 0 1 396 538)"/><rect x="326" y="514" width="74" height="8" fill="#843C0C"/><rect x="336" y="507" width="55" height="7" fill="#843C0C"/><path d="M647 546.468C647 532.955 657.955 522 671.468 522L980.532 522C994.045 522 1005 532.955 1005 546.468L1005 597.532C1005 611.045 994.045 622 980.532 622L671.468 622C657.955 622 647 611.045 647 597.532Z" fill="#F8E4BC" fill-rule="evenodd"/><path d="M726.63 522 862 522 860.84 524.4C846.399 551.325 823.705 582.838 822.37 591.149 820.232 604.447 860.126 553.915 858.701 566.681 857.989 573.064 852.691 594.03 844.609 615.551L841.972 622 733.334 622 742.827 604.513C757.987 577.319 773.838 550.635 773.215 542.213 771.968 525.369 711.059 579.092 709.1 568.809 708.12 563.667 714.443 545.005 724.394 525.923Z" fill="#FE6519" fill-rule="evenodd"/><path d="M647 599 1005 599 1003.5 606.585 1000.59 611 651.414 611 648.499 606.585Z" fill="#843C0C" fill-rule="evenodd"/><path d="M862 550C862 543.373 867.373 538 874 538L874 538C880.627 538 886 543.373 886 550L886 563C886 569.627 880.627 575 874 575L874 575C867.373 575 862 569.627 862 563Z" stroke="#33C0FF" stroke-width="2" stroke-miterlimit="8" fill="#97EEFF" fill-rule="evenodd"/><path d="M895 550C895 543.373 900.373 538 907 538L907 538C913.627 538 919 543.373 919 550L919 563C919 569.627 913.627 575 907 575L907 575C900.373 575 895 569.627 895 563Z" stroke="#33C0FF" stroke-width="2" stroke-miterlimit="8" fill="#97EEFF" fill-rule="evenodd"/><path d="M960 550.5C960 543.596 965.596 538 972.5 538L972.5 538C979.404 538 985 543.596 985 550.5L985 562.5C985 569.404 979.404 575 972.5 575L972.5 575C965.596 575 960 569.404 960 562.5Z" stroke="#33C0FF" stroke-width="2" stroke-miterlimit="8" fill="#97EEFF" fill-rule="evenodd"/><path d="M927 550.5C927 543.596 932.596 538 939.5 538L939.5 538C946.404 538 952 543.596 952 550.5L952 562.5C952 569.404 946.404 575 939.5 575L939.5 575C932.596 575 927 569.404 927 562.5Z" stroke="#33C0FF" stroke-width="2" stroke-miterlimit="8" fill="#97EEFF" fill-rule="evenodd"/><path d="M733 550C733 543.373 738.373 538 745 538L745 538C751.627 538 757 543.373 757 550L757 563C757 569.627 751.627 575 745 575L745 575C738.373 575 733 569.627 733 563Z" stroke="#33C0FF" stroke-width="2" stroke-miterlimit="8" fill="#97EEFF" fill-rule="evenodd"/><path d="M766 550C766 543.373 771.373 538 778 538L778 538C784.627 538 790 543.373 790 550L790 563C790 569.627 784.627 575 778 575L778 575C771.373 575 766 569.627 766 563Z" stroke="#33C0FF" stroke-width="2" stroke-miterlimit="8" fill="#97EEFF" fill-rule="evenodd"/><path d="M831 550.5C831 543.596 836.596 538 843.5 538L843.5 538C850.404 538 856 543.596 856 550.5L856 562.5C856 569.404 850.404 575 843.5 575L843.5 575C836.596 575 831 569.404 831 562.5Z" stroke="#33C0FF" stroke-width="2" stroke-miterlimit="8" fill="#97EEFF" fill-rule="evenodd"/><path d="M798 550.5C798 543.596 803.596 538 810.5 538L810.5 538C817.404 538 823 543.596 823 550.5L823 562.5C823 569.404 817.404 575 810.5 575L810.5 575C803.596 575 798 569.404 798 562.5Z" stroke="#33C0FF" stroke-width="2" stroke-miterlimit="8" fill="#97EEFF" fill-rule="evenodd"/><path d="M701 550C701 543.373 706.373 538 713 538L713 538C719.627 538 725 543.373 725 550L725 563C725 569.627 719.627 575 713 575L713 575C706.373 575 701 569.627 701 563Z" stroke="#33C0FF" stroke-width="2" stroke-miterlimit="8" fill="#97EEFF" fill-rule="evenodd"/><path d="M668 550C668 543.373 673.373 538 680 538L680 538C686.627 538 692 543.373 692 550L692 563C692 569.627 686.627 575 680 575L680 575C673.373 575 668 569.627 668 563Z" stroke="#33C0FF" stroke-width="2" stroke-miterlimit="8" fill="#97EEFF" fill-rule="evenodd"/><rect x="701" y="514" width="74" height="8" fill="#843C0C"/><rect x="710" y="507" width="55" height="7" fill="#843C0C"/><path d="M1020 546.468C1020 532.955 1030.95 522 1044.47 522L1353.53 522C1367.05 522 1378 532.955 1378 546.468L1378 597.532C1378 611.045 1367.05 622 1353.53 622L1044.47 622C1030.95 622 1020 611.045 1020 597.532Z" fill="#F8E4BC" fill-rule="evenodd"/><path d="M1098.63 522 1234 522 1232.84 524.4C1218.4 551.325 1195.71 582.838 1194.37 591.149 1192.23 604.447 1232.13 553.915 1230.7 566.681 1229.99 573.064 1224.69 594.03 1216.61 615.551L1213.97 622 1105.33 622 1114.83 604.513C1129.99 577.319 1145.84 550.635 1145.21 542.213 1143.97 525.369 1083.06 579.092 1081.1 568.809 1080.12 563.667 1086.44 545.005 1096.39 525.923Z" fill="#FE6519" fill-rule="evenodd"/><path d="M1020 599 1377 599 1375.51 606.585 1372.6 611 1024.4 611 1021.5 606.585Z" fill="#843C0C" fill-rule="evenodd"/><path d="M1234 550.5C1234 543.596 1239.6 538 1246.5 538L1246.5 538C1253.4 538 1259 543.596 1259 550.5L1259 562.5C1259 569.404 1253.4 575 1246.5 575L1246.5 575C1239.6 575 1234 569.404 1234 562.5Z" stroke="#33C0FF" stroke-width="2" stroke-miterlimit="8" fill="#97EEFF" fill-rule="evenodd"/><path d="M1267 550.5C1267 543.596 1272.6 538 1279.5 538L1279.5 538C1286.4 538 1292 543.596 1292 550.5L1292 562.5C1292 569.404 1286.4 575 1279.5 575L1279.5 575C1272.6 575 1267 569.404 1267 562.5Z" stroke="#33C0FF" stroke-width="2" stroke-miterlimit="8" fill="#97EEFF" fill-rule="evenodd"/><path d="M1332 550.5C1332 543.596 1337.6 538 1344.5 538L1344.5 538C1351.4 538 1357 543.596 1357 550.5L1357 562.5C1357 569.404 1351.4 575 1344.5 575L1344.5 575C1337.6 575 1332 569.404 1332 562.5Z" stroke="#33C0FF" stroke-width="2" stroke-miterlimit="8" fill="#97EEFF" fill-rule="evenodd"/><path d="M1300 550C1300 543.373 1305.37 538 1312 538L1312 538C1318.63 538 1324 543.373 1324 550L1324 563C1324 569.627 1318.63 575 1312 575L1312 575C1305.37 575 1300 569.627 1300 563Z" stroke="#33C0FF" stroke-width="2" stroke-miterlimit="8" fill="#97EEFF" fill-rule="evenodd"/><path d="M1105 550.5C1105 543.596 1110.6 538 1117.5 538L1117.5 538C1124.4 538 1130 543.596 1130 550.5L1130 562.5C1130 569.404 1124.4 575 1117.5 575L1117.5 575C1110.6 575 1105 569.404 1105 562.5Z" stroke="#33C0FF" stroke-width="2" stroke-miterlimit="8" fill="#97EEFF" fill-rule="evenodd"/><path d="M1138 550.5C1138 543.596 1143.6 538 1150.5 538L1150.5 538C1157.4 538 1163 543.596 1163 550.5L1163 562.5C1163 569.404 1157.4 575 1150.5 575L1150.5 575C1143.6 575 1138 569.404 1138 562.5Z" stroke="#33C0FF" stroke-width="2" stroke-miterlimit="8" fill="#97EEFF" fill-rule="evenodd"/><path d="M1203 550.5C1203 543.596 1208.6 538 1215.5 538L1215.5 538C1222.4 538 1228 543.596 1228 550.5L1228 562.5C1228 569.404 1222.4 575 1215.5 575L1215.5 575C1208.6 575 1203 569.404 1203 562.5Z" stroke="#33C0FF" stroke-width="2" stroke-miterlimit="8" fill="#97EEFF" fill-rule="evenodd"/><path d="M1171 550C1171 543.373 1176.37 538 1183 538L1183 538C1189.63 538 1195 543.373 1195 550L1195 563C1195 569.627 1189.63 575 1183 575L1183 575C1176.37 575 1171 569.627 1171 563Z" stroke="#33C0FF" stroke-width="2" stroke-miterlimit="8" fill="#97EEFF" fill-rule="evenodd"/><path d="M1073 550.5C1073 543.596 1078.6 538 1085.5 538L1085.5 538C1092.4 538 1098 543.596 1098 550.5L1098 562.5C1098 569.404 1092.4 575 1085.5 575L1085.5 575C1078.6 575 1073 569.404 1073 562.5Z" stroke="#33C0FF" stroke-width="2" stroke-miterlimit="8" fill="#97EEFF" fill-rule="evenodd"/><path d="M1040 550.5C1040 543.596 1045.6 538 1052.5 538L1052.5 538C1059.4 538 1065 543.596 1065 550.5L1065 562.5C1065 569.404 1059.4 575 1052.5 575L1052.5 575C1045.6 575 1040 569.404 1040 562.5Z" stroke="#33C0FF" stroke-width="2" stroke-miterlimit="8" fill="#97EEFF" fill-rule="evenodd"/><rect x="1073" y="514" width="74" height="8" fill="#843C0C"/><rect x="1083" y="507" width="55" height="7" fill="#843C0C"/><path d="M274 599 633 599 633 611 274 611Z" fill="#843C0C" fill-rule="evenodd"/></g></svg>