<svg width="290" height="550" xmlns="http://www.w3.org/2000/svg" xmlns:xlink="http://www.w3.org/1999/xlink" overflow="hidden"><defs><clipPath id="clip0"><rect x="1441" y="44" width="290" height="550"/></clipPath></defs><g clip-path="url(#clip0)" transform="translate(-1441 -44)"><path d="M1586.32 45 1671.69 45 1676.54 60.1444C1677.76 65.1802 1678.52 69.922 1678.71 73.9305 1679.6 92.2549 1652.78 103.25 1655.07 124.906 1657.36 146.562 1688.24 181.545 1692.44 203.867 1696.63 226.19 1677.69 237.684 1680.24 258.841 1682.78 279.997 1704.77 303.985 1707.69 330.805 1710.62 357.626 1694.09 393.608 1697.78 419.762 1701.46 445.916 1727.4 461.242 1729.81 487.729 1732.23 514.216 1710.62 556.196 1712.27 578.685 1712.66 583.956 1714.98 588.586 1718.16 592.724L1718.4 593 1642.05 593 1642.67 587.029C1645.32 565.571 1648.76 543.077 1646.68 528.709 1642.23 498.057 1620.75 484.731 1619.22 458.743 1617.7 432.756 1638.67 403.104 1637.53 372.785 1636.38 342.466 1615.28 304.818 1612.36 276.832 1609.43 248.845 1622.27 223.691 1619.98 204.867 1617.7 186.043 1599.77 179.879 1598.63 163.887 1597.48 147.895 1615.28 130.903 1613.12 108.913 1611.5 92.4215 1593.22 66.2779 1586.91 47.5605ZM1511.24 45 1572.4 45 1574.41 55.228C1575.93 67.7844 1575.93 81.7359 1574.35 93.3969 1571.18 116.719 1548.03 142.04 1546.36 165.362 1544.7 188.684 1566.52 208.508 1564.35 233.329 1562.19 258.15 1537.2 290.301 1533.37 314.289 1529.54 338.278 1547.36 352.438 1541.37 377.259 1535.37 402.08 1499.06 434.897 1497.39 463.217 1495.73 491.537 1528.71 522.022 1531.37 547.176 1532.54 558.181 1531.79 571.004 1529.47 582.547L1526.44 593 1453.3 593 1451.42 590.155C1441.42 570.498 1454.91 523.188 1453.41 496.201 1451.92 469.214 1439.59 454.055 1442.42 428.234 1445.25 402.413 1465.41 371.095 1470.41 341.276 1475.4 311.458 1466.91 272.81 1472.4 249.321 1477.9 225.833 1498.89 221.335 1503.39 200.345 1507.89 179.355 1496.56 153.534 1499.39 123.382 1501.16 104.537 1504.62 75.0205 1509.65 51.5472Z" fill="#FFFFFF" fill-rule="evenodd" fill-opacity="0.4"/></g></svg>